<?xml version="1.0" standalone="no"?>
<!DOCTYPE svg PUBLIC "-//W3C//DTD SVG 20010904//EN"
 "http://www.w3.org/TR/2001/REC-SVG-20010904/DTD/svg10.dtd">
<svg version="1.0" xmlns="http://www.w3.org/2000/svg"
 width="1920.000000pt" height="1080.000000pt" viewBox="0 0 1920.000000 1080.000000"
 preserveAspectRatio="xMidYMid meet">

<g transform="translate(0.000000,1080.000000) scale(0.100000,-0.100000)"
fill="#000000" stroke="none">
<path d="M0 5400 l0 -5400 9600 0 9600 0 0 5400 0 5400 -9600 0 -9600 0 0
-5400z m7680 4239 c8 -1 -5 -5 -30 -9 -25 -4 -56 -11 -70 -15 -19 -5 -16 -2
10 14 19 11 44 18 55 16 11 -3 27 -5 35 -6z m-1470 -14 c0 -9 -9 -15 -25 -15
-26 0 -34 15 -12 23 23 10 37 7 37 -8z m86 1 c7 -18 -14 -59 -26 -51 -5 3 -11
1 -15 -5 -3 -5 -15 -10 -26 -10 -10 0 -28 -5 -39 -12 -10 -7 -23 -9 -27 -4
-12 12 27 36 60 36 35 0 61 28 45 47 -8 10 -6 13 6 13 9 0 19 -6 22 -14z
m-198 -14 c2 -8 -8 -12 -30 -12 -31 1 -32 1 -13 15 21 17 37 15 43 -3z m1642
8 c-19 -13 -30 -13 -30 0 0 6 10 10 23 10 18 0 19 -2 7 -10z m-1822 -18 c3
-10 -8 -12 -44 -10 -28 2 -49 8 -52 16 -3 10 8 12 44 10 28 -2 49 -8 52 -16z
m107 8 c4 -6 -14 -9 -47 -8 l-53 1 45 7 c25 4 46 8 47 8 1 1 5 -2 8 -8z m1313
5 c-2 -3 -33 -10 -69 -15 -35 -6 -85 -14 -110 -18 -25 -5 -52 -6 -60 -3 -8 3
31 13 86 22 103 17 162 23 153 14z m85 -2 c-13 -2 -33 -2 -45 0 -13 2 -3 4 22
4 25 0 35 -2 23 -4z m432 -3 c18 -8 17 -9 -7 -9 -16 -1 -28 4 -28 9 0 12 8 12
35 0z m-322 -7 c-7 -2 -19 -2 -25 0 -7 3 -2 5 12 5 14 0 19 -2 13 -5z m-1743
-13 c0 -6 -18 -10 -40 -10 -52 0 -52 14 0 17 22 2 40 -2 40 -7z m2209 -26 c47
-15 51 -18 32 -26 -23 -8 -71 10 -98 38 -17 16 -17 30 0 16 6 -5 36 -18 66
-28z m-2439 16 c0 -5 -7 -10 -15 -10 -8 0 -15 5 -15 10 0 6 7 10 15 10 8 0 15
-4 15 -10z m55 0 c3 -5 -1 -10 -10 -10 -9 0 -13 5 -10 10 3 6 8 10 10 10 2 0
7 -4 10 -10z m65 0 c0 -5 -12 -10 -26 -10 -14 0 -23 4 -19 10 3 6 15 10 26 10
10 0 19 -4 19 -10z m934 1 c3 -4 34 -11 68 -15 107 -11 174 -23 148 -26 -14
-1 -32 -2 -40 -1 -18 1 -165 19 -235 29 l-50 6 45 7 c25 3 48 7 52 7 4 1 9 -2
12 -7z m436 -9 c-14 -2 -29 -8 -34 -13 -15 -13 -129 -12 -120 2 3 6 20 9 37 6
16 -2 48 1 71 8 23 7 48 10 56 6 10 -4 7 -7 -10 -9z m-1553 -5 c-2 -7 -14 -14
-27 -15 l-23 -4 24 -12 c14 -8 29 -9 36 -4 7 5 14 5 18 -2 8 -13 155 -10 155
3 0 5 4 6 9 3 15 -10 0 -47 -22 -55 -17 -7 -36 -7 -126 -2 -15 1 -21 6 -18 15
4 9 0 13 -11 11 -9 -1 -16 -8 -14 -14 4 -21 -50 -11 -80 14 -16 14 -25 25 -19
25 6 0 11 8 11 18 0 25 3 27 50 29 27 1 40 -3 37 -10z m983 -2 c0 -10 -10 -15
-32 -14 l-33 1 30 13 c17 8 31 14 33 15 1 0 2 -7 2 -15z m-80 -5 c0 -5 -5 -10
-11 -10 -6 0 -17 -7 -25 -15 -9 -8 -28 -15 -43 -15 -15 0 -30 -3 -34 -6 -3 -3
-29 -17 -56 -30 -56 -25 -69 -19 -21 9 17 10 30 15 30 11 0 -4 10 2 23 13 12
12 39 25 60 28 20 4 40 11 43 16 7 12 34 11 34 -1z m1755 1 c3 -5 -8 -9 -25
-9 -21 1 -27 4 -18 9 17 11 35 11 43 0z m-3015 -25 c0 -3 -4 -8 -10 -11 -5 -3
-10 -1 -10 4 0 6 5 11 10 11 6 0 10 -2 10 -4z m3056 -8 c10 -16 -21 -36 -69
-43 -153 -23 -193 -43 -205 -104 l-7 -33 -14 24 c-12 24 -10 28 31 70 37 38
52 47 93 52 28 4 69 9 93 12 24 3 46 12 49 20 6 17 19 18 29 2z m-3087 -2
c-12 -10 -60 -16 -54 -6 3 5 18 10 32 10 15 0 24 -2 22 -4z m945 -31 c-10 -8
-31 -15 -46 -15 -21 0 -28 -5 -28 -19 0 -27 12 -32 50 -21 19 5 36 7 39 5 9
-10 -34 -34 -59 -33 -44 1 -80 9 -75 18 3 4 -2 13 -10 20 -10 8 -15 9 -15 2 0
-6 -16 -12 -35 -14 -27 -2 -33 -6 -25 -18 7 -12 12 -12 34 0 14 7 29 10 33 6
10 -10 -17 -26 -44 -26 -17 0 -23 -6 -23 -21 0 -14 -5 -19 -17 -17 -19 4 -19
6 -8 51 6 21 4 27 -9 27 -9 0 -16 5 -16 10 0 6 15 10 34 10 19 0 37 4 41 9 3
5 31 13 63 17 31 3 64 10 72 15 8 5 26 9 39 9 24 0 24 0 5 -15z m6365 11 c-12
-10 -59 -15 -59 -6 0 5 14 10 32 10 17 0 29 -2 27 -4z m-7022 -12 c-3 -3 -12
-4 -19 -1 -8 3 -5 6 6 6 11 1 17 -2 13 -5z m7119 -10 c19 -9 32 -19 30 -22 -3
-3 -11 0 -18 6 -7 5 -33 14 -58 20 -35 8 -39 10 -17 11 16 1 44 -6 63 -15z
m-176 -9 c-24 -29 -4 -43 67 -48 37 -3 82 -8 98 -11 68 -15 161 -23 170 -14 6
5 5 16 -4 30 -13 20 -12 21 31 14 23 -4 62 -8 86 -10 42 -3 72 -19 59 -32 -4
-4 -19 -2 -33 5 -39 17 -64 6 -64 -31 0 -25 3 -29 18 -22 9 4 44 10 76 13 34
4 61 11 64 19 2 7 -5 12 -17 12 -12 0 -21 5 -21 11 0 17 56 3 90 -21 15 -11
33 -20 40 -20 6 0 8 -4 5 -10 -3 -5 -21 -10 -38 -10 -23 0 -49 -13 -91 -46
-61 -49 -57 -48 -154 -28 -20 4 -50 1 -73 -6 -22 -7 -42 -10 -46 -6 -11 10 27
31 57 32 74 2 80 4 80 23 0 35 -51 61 -122 61 -34 0 -88 7 -118 15 -30 8 -78
15 -107 15 -55 0 -83 7 -83 20 0 20 21 60 31 60 8 0 8 -4 -1 -15z m-7120 -9
c0 -3 -4 -8 -10 -11 -5 -3 -10 -1 -10 4 0 6 5 11 10 11 6 0 10 -2 10 -4z
m4344 -14 c-25 -20 -36 -46 -28 -67 9 -24 42 -18 46 8 3 24 11 25 73 6 22 -6
54 -12 72 -12 31 -1 31 -1 13 -17 -13 -11 -16 -21 -9 -31 15 -25 11 -59 -8
-58 -11 0 -13 3 -5 6 25 10 0 53 -32 53 -9 0 -33 9 -54 20 -36 20 -58 12 -33
-13 6 -6 11 -21 11 -34 0 -25 10 -29 27 -12 13 13 54 8 54 -6 -1 -5 -20 -11
-44 -13 -38 -3 -45 0 -55 22 -19 43 -49 43 -93 0 -21 -21 -39 -33 -39 -26 0 6
11 19 25 28 29 19 41 54 27 81 -5 10 -12 31 -16 46 -6 25 -5 28 13 22 12 -3
29 -2 38 4 29 17 40 12 17 -7z m165 9 c35 -1 62 -3 59 -6 -11 -11 -168 -9
-179 2 -8 8 -1 10 23 8 18 -2 62 -4 97 -4z m-3959 -21 c-24 -15 -37 -11 -16 5
11 8 22 12 25 9 3 -3 -1 -9 -9 -14z m3564 5 c11 -8 29 -15 40 -15 16 0 17 -3
8 -12 -9 -9 -15 -9 -24 0 -8 8 -46 12 -102 12 -82 1 -89 2 -72 15 26 20 125
19 150 0z m3294 8 c-10 -2 -28 -2 -40 0 -13 2 -5 4 17 4 22 1 32 -1 23 -4z
m-7553 -13 c3 -5 21 -10 38 -10 27 -1 29 -2 14 -11 -21 -12 -91 7 -82 22 8 12
22 12 30 -1z m1020 0 c3 -5 1 -10 -4 -10 -6 0 -11 5 -11 10 0 6 2 10 4 10 3 0
8 -4 11 -10z m3362 -15 c-4 -8 -16 -15 -28 -15 -18 0 -19 2 -9 15 7 8 16 12
21 9 5 -3 9 0 9 7 0 7 3 10 6 6 4 -3 4 -13 1 -22z m-4069 -2 c-2 -12 -14 -19
-35 -21 -21 -2 -34 -10 -38 -22 -7 -23 -24 -29 -94 -36 -36 -3 -72 0 -101 10
-25 8 -37 15 -27 15 9 1 17 6 17 12 0 6 7 3 16 -5 8 -9 20 -14 25 -11 5 3 18
1 29 -5 13 -7 20 -7 20 0 0 5 8 10 18 10 9 0 25 14 35 31 14 25 20 29 31 20
10 -8 16 -9 21 -1 3 6 10 8 15 5 5 -3 11 -1 15 5 3 5 17 10 31 10 19 0 25 -5
22 -17z m312 -18 c-18 -21 -102 -57 -112 -47 -4 4 15 16 42 27 28 11 50 23 50
27 0 4 7 8 16 8 14 0 14 -3 4 -15z m4120 -5 c0 -5 -4 -10 -9 -10 -5 0 -16 -3
-25 -6 -9 -3 -16 -1 -16 4 0 9 16 17 43 21 4 0 7 -3 7 -9z m-555 -39 c23 -4
47 -3 58 4 20 12 50 -3 55 -29 3 -12 -4 -16 -32 -16 -49 0 -51 -13 -6 -39 47
-26 49 -31 14 -31 -17 0 -41 15 -72 45 -25 25 -50 45 -56 45 -6 0 -22 10 -36
21 l-25 21 30 -7 c17 -3 48 -10 70 -14z m-3710 -11 c-3 -5 -15 -10 -26 -10
-11 0 -17 5 -14 10 3 6 15 10 26 10 11 0 17 -4 14 -10z m7520 -6 c16 -8 34
-22 38 -30 7 -12 13 -12 45 2 104 46 332 -10 332 -81 0 -13 -4 -26 -10 -30
-21 -13 3 -30 43 -31 23 0 69 -8 101 -18 59 -16 104 -14 159 9 29 12 20 -13
-11 -29 -53 -27 -93 -28 -169 -3 -39 13 -77 21 -85 17 -7 -4 -48 -15 -90 -25
-64 -16 -79 -16 -93 -5 -14 12 -14 14 1 31 10 11 46 33 81 49 64 31 77 46 46
57 -10 3 -25 12 -33 18 -30 25 -162 35 -265 20 -45 -6 -55 -4 -93 21 -60 39
-58 60 3 28z m-7930 -28 c42 -11 54 -11 77 0 34 18 90 11 134 -17 34 -20 36
-20 54 -4 11 10 20 13 20 7 0 -18 -40 -34 -71 -28 -22 4 -29 2 -29 -10 0 -12
-6 -15 -22 -11 -31 8 -195 8 -234 1 -20 -4 -43 0 -60 9 -28 15 -27 15 34 10
53 -5 62 -3 62 11 0 9 -7 19 -15 22 -15 6 -21 24 -7 24 4 -1 30 -7 57 -14z
m331 -1 c-11 -8 -25 -15 -30 -15 -6 0 -2 7 8 15 11 8 25 15 30 15 6 0 2 -7 -8
-15z m418 -5 c14 0 28 -4 31 -10 3 -5 16 -10 28 -11 12 0 16 -3 9 -6 -7 -3
-36 1 -65 8 -29 7 -55 12 -59 11 -5 -1 -8 5 -8 13 0 12 4 13 19 5 11 -5 31
-10 45 -10z m-984 5 c0 -5 -79 -45 -89 -45 -3 0 10 11 29 25 31 23 60 33 60
20z m51 -15 c31 -26 15 -26 -18 0 -14 11 -21 20 -15 20 5 0 20 -9 33 -20z
m2939 11 c0 -5 -7 -12 -16 -15 -24 -9 -28 -7 -14 9 14 17 30 20 30 6z m-1810
-13 c0 -9 -18 -13 -56 -13 -47 -1 -53 1 -38 12 23 17 94 17 94 1z m65 -8 c3
-5 1 -10 -4 -10 -6 0 -11 5 -11 10 0 6 2 10 4 10 3 0 8 -4 11 -10z m5440 -3
c12 -10 16 -21 12 -38 -5 -19 -16 -27 -52 -35 -24 -6 -50 -7 -56 -3 -17 10 10
23 53 24 45 1 55 9 37 31 -9 12 -24 15 -51 11 -36 -5 -47 1 -31 16 11 12 68 8
88 -6z m-3742 -24 c-7 -19 -28 -43 -37 -43 -2 0 2 14 10 30 16 32 38 42 27 13z
m3557 5 c32 1 41 -1 30 -8 -20 -13 -187 -13 -174 -1 13 13 55 20 79 13 11 -3
40 -5 65 -4z m1155 -8 c-3 -5 -20 -10 -36 -10 -18 0 -28 4 -24 10 3 6 20 10
36 10 18 0 28 -4 24 -10z m-90 -10 c-3 -5 -11 -10 -16 -10 -6 0 -7 5 -4 10 3
6 11 10 16 10 6 0 7 -4 4 -10z m-3055 -10 c0 -5 -4 -10 -10 -10 -5 0 -10 5
-10 10 0 6 5 10 10 10 6 0 10 -4 10 -10z m1814 -5 c-4 -8 -12 -15 -20 -15 -17
0 -18 17 -1 23 22 9 27 7 21 -8z m-4953 -52 c19 -34 32 -69 31 -85 -1 -15 2
-28 8 -28 5 0 7 -7 3 -15 -9 -25 -43 12 -42 44 1 21 -15 67 -49 134 -2 4 1 7
6 7 6 0 25 -26 43 -57z m-971 39 c0 -10 -50 -35 -57 -28 -3 2 8 11 24 20 34
18 33 18 33 8z m-1695 -23 c22 -6 55 -25 73 -42 32 -31 35 -32 127 -32 62 0
98 -4 106 -12 17 -17 29 -16 51 4 34 30 32 3 -2 -32 -34 -35 -69 -46 -71 -22
-1 6 -2 21 -3 31 -2 28 -22 31 -43 7 -19 -23 -34 -26 -61 -12 -27 14 -109 31
-147 31 -18 0 -36 4 -39 9 -7 11 18 33 27 24 4 -3 7 -2 7 3 0 17 -94 39 -162
38 -49 -1 -74 -7 -95 -22 -15 -10 -38 -23 -51 -26 -12 -4 -46 -23 -75 -42 -28
-19 -57 -34 -64 -34 -17 0 -16 -6 3 -35 18 -28 45 -32 64 -10 7 8 21 15 32 15
11 0 32 6 46 14 67 36 142 60 154 48 8 -8 2 -15 -23 -25 l-34 -15 33 -7 c30
-7 32 -10 27 -36 -6 -27 -5 -28 34 -26 45 1 67 -13 57 -39 -5 -14 -16 -16 -65
-11 -59 5 -111 0 -111 -12 0 -13 126 -62 148 -58 12 2 25 0 28 -4 10 -17 63
-9 129 21 79 36 102 37 175 7 41 -16 55 -27 55 -42 0 -19 6 -20 78 -17 68 2
81 0 113 -22 20 -13 43 -22 50 -19 10 4 12 0 8 -11 -9 -23 -25 -20 -64 15 -28
25 -40 29 -65 24 -79 -16 -106 -16 -176 4 l-73 20 -68 -20 c-47 -15 -74 -29
-88 -47 -39 -52 -41 -54 -55 -42 -8 7 -19 27 -25 46 -11 32 -32 43 -65 34 -25
-7 -151 -17 -162 -13 -7 3 -13 18 -13 33 0 24 -5 29 -35 34 -19 4 -35 11 -35
16 0 13 17 13 25 0 4 -6 15 -8 26 -5 63 17 64 17 52 5 -27 -28 61 -76 92 -50
20 16 7 31 -45 55 -44 20 -52 46 -25 81 8 10 15 31 15 47 0 23 -4 27 -29 27
-16 0 -34 -6 -40 -13 -6 -8 -36 -19 -67 -26 -52 -12 -59 -11 -83 7 -29 21 -41
62 -18 62 8 0 20 7 27 15 7 8 19 15 27 15 8 0 40 17 71 37 94 60 138 74 212
68 36 -3 83 -11 105 -16z m1390 7 l40 -14 -37 -7 c-23 -4 -38 -13 -38 -21 0
-22 29 -28 66 -15 36 13 67 5 43 -10 -8 -5 -24 -9 -35 -9 -12 0 -44 -20 -72
-45 -54 -49 -67 -54 -76 -28 -4 11 4 27 24 48 35 36 40 60 10 51 -11 -3 -29
-9 -40 -12 -17 -6 -20 -2 -20 29 0 25 -5 37 -17 40 -10 3 11 5 47 6 36 0 83
-6 105 -13z m6440 4 c3 -5 -1 -10 -10 -10 -8 0 -23 -4 -33 -9 -35 -19 -112
-51 -122 -51 -5 0 -10 -4 -10 -10 0 -5 -8 -10 -17 -10 -36 0 33 50 102 75 80
28 82 28 90 15z m-6325 -22 c0 -6 -10 -8 -22 -4 -13 3 -30 6 -38 7 -8 0 -4 4
10 8 28 9 50 4 50 -11z m68 6 c35 -10 26 -26 -10 -19 -39 8 -61 25 -32 25 10
0 29 -3 42 -6z m5968 -10 c-3 -9 -6 -18 -6 -20 0 -2 -7 -4 -15 -4 -13 0 -13 3
-3 20 15 24 33 27 24 4z m1294 -9 c0 -18 -56 -39 -77 -29 -16 7 -16 8 3 11 12
2 24 13 27 23 3 13 11 17 26 13 12 -3 21 -11 21 -18z m-7994 0 c-11 -8 -28
-15 -39 -15 -10 0 -27 -5 -38 -10 -13 -8 -19 -7 -19 0 0 6 8 13 18 16 9 3 24
9 32 14 8 5 26 9 40 9 24 0 24 0 6 -14z m251 6 c10 -5 -7 -10 -46 -14 -64 -7
-108 -24 -131 -52 -21 -25 -3 -30 48 -13 70 24 162 32 162 14 0 -10 -20 -16
-67 -21 -36 -4 -82 -14 -100 -23 -28 -13 -33 -20 -29 -42 3 -14 -1 -36 -8 -49
-16 -29 -4 -67 23 -74 14 -3 13 -5 -3 -12 -14 -6 -23 -2 -37 16 -23 30 -24 48
-2 78 15 23 15 25 -2 37 -23 17 -41 18 -51 3 -6 -10 -106 -59 -119 -59 -15 0
-2 29 15 33 30 8 24 27 -7 27 l-28 0 30 20 c17 11 35 18 42 15 14 -5 55 41 74
84 11 25 15 27 24 14 9 -13 18 -14 46 -5 103 31 142 37 166 23z m3073 5 c0 -3
-4 -8 -10 -11 -5 -3 -10 -1 -10 4 0 6 5 11 10 11 6 0 10 -2 10 -4z m4538 -27
c-15 -4 -32 -10 -39 -14 -8 -6 -10 -4 -5 4 10 16 48 30 61 23 5 -3 -3 -9 -17
-13z m-4591 -5 c-3 -3 -12 -4 -19 -1 -8 3 -5 6 6 6 11 1 17 -2 13 -5z m6547
-24 l21 -22 -30 7 c-47 11 -199 13 -213 2 -31 -24 -242 -3 -242 24 0 15 47 10
104 -11 41 -16 59 -18 73 -10 42 25 97 35 179 33 75 -1 90 -4 108 -23z m-6654
-12 c0 -4 -9 -8 -19 -8 -11 0 -21 -6 -24 -12 -3 -10 -9 -9 -22 4 -15 14 -16
20 -6 31 9 12 18 13 41 4 17 -6 30 -15 30 -19z m3500 8 c0 -17 -7 -26 -25 -30
-16 -4 -25 -13 -25 -26 0 -10 -4 -22 -10 -25 -17 -10 -11 -35 8 -35 9 -1 28
-8 42 -16 l25 -15 -35 6 c-52 8 -64 24 -51 71 9 33 52 94 66 94 3 0 5 -11 5
-24z m-6790 4 c-1 -22 -21 -32 -54 -26 -43 8 -44 5 -11 -28 14 -14 25 -31 25
-38 0 -7 -9 -2 -19 11 -10 13 -23 21 -29 17 -6 -4 -19 5 -28 19 -16 24 -16 27
0 38 16 11 116 18 116 7z m479 -25 c-19 -19 -39 -35 -45 -35 -16 0 -54 -48
-54 -67 0 -12 -3 -14 -11 -6 -23 23 28 88 89 114 17 8 32 17 32 21 0 5 5 8 11
8 7 0 -3 -16 -22 -35z m406 -2 c49 -32 58 -35 81 -25 35 17 40 15 19 -8 -10
-11 -23 -20 -29 -20 -26 0 -136 68 -136 84 0 11 10 6 65 -31z m6990 -2 c-43
-41 -113 -81 -142 -81 -10 0 -27 7 -37 15 -18 14 -18 15 -1 21 10 4 26 2 36
-5 11 -6 19 -7 19 -3 0 5 17 15 37 23 20 8 52 26 71 42 51 40 63 33 17 -12z
m2875 -11 l45 -9 -50 5 c-134 12 -160 17 -141 24 11 3 38 3 60 -2 23 -5 61
-13 86 -18z m-740 16 c0 -11 -19 -15 -25 -6 -3 5 1 10 9 10 9 0 16 -2 16 -4z
m-10270 -20 c0 -7 -6 -19 -14 -25 -18 -15 -8 -62 15 -68 19 -5 27 -23 10 -23
-18 0 -81 31 -81 39 0 14 52 91 62 91 4 0 8 -6 8 -14z m7155 -24 c-5 -31 -2
-41 14 -57 53 -47 0 -84 -74 -51 -28 13 -27 14 28 9 47 -5 57 -3 57 10 0 8
-11 18 -24 21 -31 8 -41 39 -26 77 18 42 33 36 25 -9z m3931 17 c3 -6 15 -9
25 -6 12 3 19 0 19 -9 0 -8 -7 -14 -16 -14 -21 0 -54 18 -54 30 0 13 17 13 26
-1z m-756 -25 c0 -17 -12 -18 -28 -2 -18 18 -15 27 8 21 11 -3 20 -12 20 -19z
m-8958 -56 c-6 -13 -62 35 -62 53 0 13 7 10 33 -14 18 -18 31 -35 29 -39z
m6458 51 c0 -6 -4 -7 -10 -4 -5 3 -10 11 -10 16 0 6 5 7 10 4 6 -3 10 -11 10
-16z m-4357 -1 c51 -27 54 -68 4 -49 -22 9 -27 8 -27 -4 0 -10 10 -15 28 -15
30 0 60 -15 50 -25 -3 -4 -15 -2 -25 3 -12 7 -25 7 -34 1 -19 -12 -86 -12 -94
1 -3 5 6 17 20 26 20 13 25 23 21 40 -8 32 19 43 57 22z m7337 -3 c0 -8 -20
-24 -45 -36 -37 -18 -50 -19 -76 -10 -18 6 -45 11 -60 11 -15 0 -30 4 -33 9
-3 5 33 7 85 4 85 -5 91 -4 96 16 6 24 33 29 33 6z m-8503 -10 c1 -5 -2 -17
-7 -25 -9 -13 -12 -12 -25 4 -8 10 -12 23 -9 28 7 11 36 6 41 -7z m1308 5 c3
-5 1 -10 -4 -10 -6 0 -11 5 -11 10 0 6 2 10 4 10 3 0 8 -4 11 -10z m-5862 -25
c35 -14 18 -28 -25 -20 -70 13 -140 8 -283 -19 -16 -3 -55 -9 -85 -12 -30 -4
-59 -10 -65 -14 -5 -4 -26 -11 -45 -15 -19 -4 -49 -14 -67 -22 -18 -8 -38 -13
-45 -11 -17 6 134 68 202 83 30 7 98 16 151 20 52 4 102 11 110 16 14 10 120
6 152 -6z m9877 -36 c0 -11 -4 -19 -9 -19 -10 0 -21 24 -21 47 0 13 3 13 15 3
8 -7 15 -21 15 -31z m339 -44 c46 -12 91 -53 91 -84 0 -57 -11 -86 -41 -103
-38 -22 -51 -2 -17 26 43 35 49 57 26 88 -28 40 -56 38 -51 -4 5 -36 5 -36
-47 31 -14 18 -33 40 -42 49 -9 10 -19 29 -23 44 -6 22 -3 27 17 30 18 3 27
-4 42 -34 12 -23 29 -39 45 -43z m3346 75 c3 -6 -1 -7 -9 -4 -18 7 -21 14 -7
14 6 0 13 -4 16 -10z m-5565 -9 c0 -4 -31 -12 -70 -17 -75 -10 -94 -4 -32 12
46 12 102 14 102 5z m145 -1 c4 -6 -6 -10 -22 -10 -22 0 -25 2 -13 10 19 12
27 12 35 0z m4585 -3 c16 4 21 3 16 -5 -10 -17 -61 -15 -76 3 -11 14 -10 14
12 6 14 -5 36 -7 48 -4z m1287 -2 c2 -6 -18 -10 -47 -11 -28 0 -50 3 -50 7 0
18 91 22 97 4z m-13782 -16 c33 -5 85 -14 116 -18 53 -8 99 -25 99 -37 0 -7
-59 6 -80 17 -15 8 -215 30 -276 29 -18 0 -37 7 -44 15 -11 13 -3 14 56 10 38
-3 96 -10 129 -16z m2710 -3 c15 -8 39 -12 53 -9 60 12 187 2 204 -15 15 -15
-9 -16 -65 -3 -42 10 -53 1 -36 -30 10 -20 9 -21 -12 -15 -74 24 -116 19 -149
-16 -26 -29 -36 -18 -10 12 26 30 25 34 -5 58 -41 33 -29 43 20 18z m439 -19
c19 -12 43 -38 52 -57 28 -57 67 -99 102 -111 42 -14 43 -43 1 -58 -45 -16
-63 -14 -90 9 -27 22 -22 25 17 10 51 -20 60 -4 21 40 -20 21 -45 57 -56 78
-11 21 -37 54 -57 71 -33 29 -42 32 -78 27 -40 -6 -40 -5 -16 9 30 17 56 13
104 -18z m2434 15 c2 -7 -3 -12 -12 -12 -9 0 -16 7 -16 16 0 17 22 14 28 -4z
m42 8 c-20 -13 -33 -13 -25 0 3 6 14 10 23 10 15 0 15 -2 2 -10z m2208 3 c-10
-2 -26 -2 -35 0 -10 3 -2 5 17 5 19 0 27 -2 18 -5z m119 1 c-3 -3 -12 -4 -19
-1 -8 3 -5 6 6 6 11 1 17 -2 13 -5z m68 -15 c16 -16 -20 -10 -41 7 -18 14 -18
15 6 8 14 -3 29 -10 35 -15z m-7095 -25 c32 -17 33 -19 12 -22 -12 -2 -38 6
-58 19 -35 21 -36 21 -70 3 -28 -15 -38 -17 -54 -6 -23 14 -56 16 -64 3 -4 -5
-30 -12 -59 -16 -28 -4 -56 -11 -62 -15 -5 -4 -26 -11 -45 -15 -32 -7 -33 -6
-21 9 8 9 21 14 29 11 8 -3 20 -1 26 3 19 16 150 43 191 41 22 -2 49 2 59 8
22 12 67 3 116 -23z m2588 19 c12 -11 17 -34 18 -71 0 -49 -1 -52 -13 -36 -10
13 -12 32 -9 57 6 33 4 38 -19 47 -28 11 -33 20 -9 20 8 0 23 -8 32 -17z m812
-32 c-13 -33 -73 -91 -93 -91 -15 0 -75 -55 -99 -90 l-17 -25 9 34 c12 44 37
70 101 105 62 33 88 62 89 96 0 18 3 21 11 13 9 -9 9 -20 -1 -42z m5059 29
c104 -31 263 -71 298 -74 47 -4 60 9 24 24 -36 14 -42 35 -8 24 90 -28 124
-72 71 -96 -21 -10 -31 -8 -57 7 -18 11 -61 25 -97 33 -36 7 -87 18 -115 23
-27 6 -61 16 -75 24 -26 13 -74 5 -52 -9 7 -4 12 -18 12 -31 0 -22 -4 -23 -57
-23 -110 1 -131 -1 -138 -12 -10 -16 -82 -12 -89 5 -3 8 -15 15 -26 15 -11 0
-20 5 -20 10 0 13 6 13 41 -5 58 -30 221 6 166 36 -29 17 -19 28 15 18 69 -19
93 1 41 33 -37 23 -14 22 66 -2z m4464 5 c18 -8 57 -21 87 -30 l55 -15 -60 5
c-58 6 -125 31 -125 47 0 11 8 10 43 -7z m-6278 -20 c-22 -13 -52 -25 -66 -25
-14 0 -48 -11 -74 -25 -26 -14 -55 -24 -64 -23 -26 6 28 36 94 54 33 8 70 21
84 28 14 8 35 14 46 15 14 1 8 -7 -20 -24z m6988 6 c53 -5 101 -12 107 -16 6
-4 41 -11 78 -16 105 -15 126 -19 136 -29 4 -4 -10 -7 -33 -6 -22 1 -43 5 -47
9 -4 4 -27 7 -50 7 -24 0 -46 5 -49 10 -4 6 -21 10 -38 10 -67 0 -182 12 -191
21 -6 5 -21 9 -34 9 -13 0 -21 4 -17 10 4 6 14 8 24 5 9 -3 61 -9 114 -14z
m-13453 -7 c19 -3 51 -16 70 -26 35 -20 35 -20 5 -13 -75 18 -94 20 -153 20
-39 -1 -61 3 -59 10 4 11 62 24 87 19 8 -1 31 -6 50 -10z m6998 -9 c26 -14 53
-25 59 -25 19 0 16 -20 -3 -27 -10 -4 -22 1 -29 10 -7 10 -16 17 -21 17 -11 0
-72 49 -61 50 4 0 29 -11 55 -25z m-5773 -15 c11 -19 -6 -50 -37 -66 -38 -20
-46 -12 -18 16 17 17 21 29 16 51 -5 27 -4 29 14 19 10 -5 22 -15 25 -20z
m11815 20 c0 -5 -12 -10 -28 -10 -15 0 -41 -4 -58 -9 -17 -5 -37 -5 -45 -1 -9
6 -6 10 12 14 74 16 119 19 119 6z m55 0 c3 -5 -3 -10 -15 -10 -12 0 -18 5
-15 10 3 6 10 10 15 10 5 0 12 -4 15 -10z m-12183 -12 c-12 -12 -99 -48 -116
-48 -33 0 76 56 114 59 11 1 11 -2 2 -11z m148 8 c0 -3 -4 -8 -10 -11 -5 -3
-10 -1 -10 4 0 6 5 11 10 11 6 0 10 -2 10 -4z m12142 -12 c23 -4 43 -2 51 5
11 8 21 5 43 -16 l28 -26 -22 -10 c-19 -9 -34 -5 -76 17 -35 19 -61 26 -75 21
-24 -7 -44 2 -35 17 3 5 16 7 28 4 11 -3 38 -9 58 -12z m-14004 -5 c72 -18 77
-32 7 -24 -67 8 -78 12 -70 26 8 11 6 11 63 -2z m1832 -3 c0 -3 -4 -8 -10 -11
-5 -3 -10 -1 -10 4 0 6 5 11 10 11 6 0 10 -2 10 -4z m110 -33 c0 -7 -7 -10
-15 -7 -21 8 -19 -6 2 -22 16 -11 16 -13 -9 -19 -15 -4 -32 -13 -39 -21 -15
-19 -30 -18 -23 1 4 8 1 21 -5 29 -10 11 -4 18 28 32 22 11 41 26 41 34 0 13
1 13 10 0 5 -8 10 -20 10 -27z m6070 12 c14 -6 44 -17 68 -25 23 -7 42 -17 42
-22 0 -11 -3 -10 -47 6 -70 25 -145 46 -169 46 -13 0 -24 4 -24 10 0 12 97 1
130 -15z m-7850 5 c11 -7 2 -9 -30 -9 -37 1 -41 2 -20 9 34 11 33 11 50 0z
m5063 3 c-7 -2 -19 -2 -25 0 -7 3 -2 5 12 5 14 0 19 -2 13 -5z m-6413 -9 c-60
-9 -136 -28 -148 -37 -7 -5 -15 -8 -17 -5 -3 3 0 10 7 15 25 20 74 31 128 31
30 0 44 -2 30 -4z m3450 -4 c0 -5 -2 -10 -4 -10 -3 0 -8 5 -11 10 -3 6 -1 10
4 10 6 0 11 -4 11 -10z m2890 0 c-8 -5 -26 -10 -40 -10 -20 0 -22 2 -10 10 8
5 26 10 40 10 20 0 22 -2 10 -10z m-93 -17 c-9 -9 -20 -13 -24 -9 -4 4 -1 11
7 16 25 16 35 11 17 -7z m-187 -3 c0 -5 -2 -10 -4 -10 -3 0 -8 5 -11 10 -3 6
-1 10 4 10 6 0 11 -4 11 -10z m145 -11 c-4 -5 -18 -9 -33 -9 l-27 1 25 13 c25
15 45 12 35 -5z m3662 -4 c-19 -7 -50 -22 -68 -33 -19 -12 -54 -31 -79 -43
-41 -19 -47 -19 -70 -5 -14 8 -26 26 -28 40 -3 22 -8 26 -38 26 -38 0 -41 -8
-18 -51 17 -34 6 -59 -27 -59 -10 0 -41 -5 -69 -11 -45 -10 -50 -13 -50 -37 0
-42 -31 -56 -91 -42 -27 7 -49 15 -49 19 0 16 12 18 44 9 32 -10 36 -8 74 32
31 33 47 43 70 42 39 -1 60 23 64 73 3 38 5 40 39 43 36 3 58 -9 77 -44 10
-18 91 -22 101 -6 11 18 123 71 138 65 10 -4 4 -10 -20 -18z m5948 15 c3 -5
-1 -10 -9 -10 -8 0 -18 5 -21 10 -3 6 1 10 9 10 8 0 18 -4 21 -10z m-9700 -10
c19 -8 19 -9 -2 -9 -12 -1 -25 4 -28 9 -7 12 2 12 30 0z m-2665 -26 c0 -19 4
-25 15 -21 29 12 24 -11 -5 -23 -50 -21 -71 13 -37 58 15 20 27 14 27 -14z
m2557 6 c-14 -11 -30 -20 -36 -20 -13 0 -81 -40 -81 -48 0 -4 -26 -19 -58 -34
-71 -33 -179 -55 -194 -40 -7 7 10 12 58 18 77 8 134 29 179 66 17 13 37 28
45 32 8 4 31 16 50 26 46 25 69 25 37 0z m-2267 -5 c0 -8 -9 -15 -20 -15 -25
0 -26 17 -2 23 9 3 18 5 20 6 1 0 2 -6 2 -14z m4493 -5 c-3 -12 -18 -27 -33
-35 -28 -14 -79 -72 -114 -128 -9 -15 -25 -31 -34 -34 -9 -4 -23 -13 -30 -20
-7 -7 -18 -13 -24 -13 -6 0 12 21 41 47 28 25 51 54 51 63 0 17 124 140 140
140 5 0 6 -9 3 -20z m1117 10 c0 -5 -4 -10 -10 -10 -5 0 -10 5 -10 10 0 6 5
10 10 10 6 0 10 -4 10 -10z m6695 -20 c-3 -5 -15 -10 -25 -10 -10 0 -22 5 -25
10 -4 6 7 10 25 10 18 0 29 -4 25 -10z m-5165 -16 c0 -8 -5 -12 -10 -9 -6 4
-8 11 -5 16 9 14 15 11 15 -7z m5251 -10 c28 -15 64 -30 81 -33 25 -5 28 -9
17 -18 -11 -8 -30 -3 -84 24 -38 19 -74 38 -79 44 -19 18 14 9 65 -17z
m-11631 6 c13 -8 13 -10 -2 -10 -9 0 -20 5 -23 10 -8 13 5 13 25 0z m-4611
-36 c-24 -29 -30 -17 -20 35 1 2 8 -2 16 -9 12 -10 13 -16 4 -26z m3792 13
c-10 -9 -11 -8 -5 6 3 10 9 15 12 12 3 -3 0 -11 -7 -18z m5749 2 c0 -11 -40
-48 -52 -49 -17 0 -7 19 12 25 11 3 20 13 20 21 0 8 5 14 10 14 6 0 10 -5 10
-11z m1430 -24 c0 -38 -18 -47 -40 -20 -10 12 -9 16 4 21 9 3 16 12 16 20 0 8
5 14 10 14 6 0 10 -16 10 -35z m-1651 2 c8 -7 39 -14 70 -17 31 -3 56 -9 56
-15 0 -16 -75 -15 -114 1 -43 19 -113 22 -119 5 -2 -6 19 -34 46 -63 41 -42
55 -51 82 -50 18 0 36 6 40 13 5 7 18 9 35 5 39 -10 30 -45 -17 -61 -34 -11
-40 -10 -95 19 -43 23 -64 42 -82 75 -15 28 -35 48 -57 57 -37 16 -48 29 -38
45 9 15 173 3 193 -14z m7140 -1 c10 -12 8 -13 -9 -9 -25 7 -37 23 -17 23 8 0
20 -6 26 -14z m-12714 -6 c-3 -5 -12 -10 -18 -10 -7 0 -6 4 3 10 19 12 23 12
15 0z m415 -5 c-7 -8 -17 -12 -22 -9 -6 4 -5 10 3 15 22 14 33 10 19 -6z
m-4210 -4 c0 -21 -83 -30 -95 -11 -4 7 2 9 18 4 14 -3 34 -1 44 5 22 13 33 14
33 2z m3655 -11 c-4 -7 -36 -14 -92 -22 -7 -1 -13 -5 -13 -10 0 -4 -7 -8 -15
-8 -8 0 -15 -4 -15 -10 0 -5 -4 -10 -9 -10 -5 0 -7 9 -4 20 3 13 17 22 39 26
19 3 34 10 34 14 0 5 18 8 40 8 22 0 38 -4 35 -8z m40 0 c3 -5 -1 -10 -9 -10
-9 0 -16 5 -16 10 0 6 4 10 9 10 6 0 13 -4 16 -10z m875 -43 c0 -4 -10 -3 -21
4 -12 6 -35 13 -50 16 -27 4 -29 2 -29 -26 0 -35 -14 -40 -30 -12 -18 34 -11
50 22 59 25 6 41 3 70 -12 21 -12 38 -25 38 -29z m-410 33 c0 -5 -5 -10 -11
-10 -5 0 -7 5 -4 10 3 6 8 10 11 10 2 0 4 -4 4 -10z m510 -9 c-14 -27 -32 -37
-23 -14 6 15 22 32 31 33 1 0 -2 -9 -8 -19z m2192 3 c-31 -21 -94 -29 -121
-15 -18 10 -28 9 -55 -8 -18 -12 -44 -21 -57 -20 -15 0 -19 3 -9 6 8 3 27 14
42 24 29 21 112 26 123 9 4 -7 11 -8 18 -1 10 8 34 14 72 20 5 0 -1 -6 -13
-15z m84 1 c10 -8 15 -14 9 -14 -5 0 -19 6 -29 14 -11 8 -15 15 -10 15 6 0 19
-7 30 -15z m-3488 -12 l30 -17 -24 -18 c-22 -18 -25 -18 -49 -2 -30 20 -34 54
-6 54 11 0 33 -8 49 -17z m5336 -1 c20 -23 12 -74 -16 -106 -71 -77 -99 -136
-81 -165 13 -21 102 -69 130 -70 12 -1 49 6 84 15 63 16 148 13 179 -6 23 -15
1 -42 -53 -64 -41 -17 -51 -18 -86 -6 -25 8 -58 10 -94 6 -51 -7 -55 -6 -50
12 3 15 -5 23 -41 38 -57 25 -99 82 -90 122 9 37 43 93 71 117 31 26 42 89 18
99 -29 11 -49 -1 -75 -45 -23 -38 -56 -66 -66 -56 -2 2 5 15 17 28 11 13 28
36 37 51 28 47 86 62 116 30z m7468 6 c6 -18 -18 -39 -36 -32 -26 10 -20 44 8
44 13 0 26 -6 28 -12z m-11062 -59 c0 -10 -4 -21 -10 -24 -5 -3 -10 2 -10 12
0 10 -3 29 -6 43 -5 24 -5 24 10 6 9 -11 16 -28 16 -37z m-1070 31 c0 -3 -5
-11 -11 -17 -9 -9 -3 -27 24 -72 40 -68 35 -83 -8 -22 -27 40 -66 58 -102 47
-36 -11 -99 -15 -112 -7 -8 6 3 11 35 16 59 8 91 27 72 42 -7 6 -20 12 -28 15
-8 3 18 5 58 4 39 0 72 -3 72 -6z m1614 -5 c-10 -8 -24 -15 -30 -15 -6 0 -29
-16 -52 -36 -44 -38 -57 -36 -20 3 12 13 27 23 35 23 7 0 13 4 13 8 0 10 38
30 59 31 10 1 9 -3 -5 -14z m-5826 -37 c2 -11 -5 -21 -20 -27 -13 -5 -34 -18
-47 -30 -27 -24 -50 -28 -31 -6 6 8 8 20 4 26 -5 8 -3 9 7 4 12 -7 12 -6 1 7
-11 14 -9 19 10 32 29 21 72 17 76 -6z m16291 13 c35 -9 37 -51 3 -51 -19 0
-23 4 -19 20 6 24 -18 28 -27 4 -5 -13 -9 -14 -21 -4 -38 32 -2 50 64 31z
m-12689 -7 c0 -14 -45 -45 -48 -34 -2 6 4 18 14 25 20 15 34 19 34 9z m3054
-19 c3 -8 17 -15 31 -15 14 0 25 -4 25 -9 0 -16 -17 -21 -49 -15 -24 5 -31 12
-31 30 0 27 15 32 24 9z m9961 5 c19 -8 19 -9 -2 -9 -12 -1 -25 4 -28 9 -7 12
2 12 30 0z m-13095 -9 c0 -4 -30 -16 -67 -25 -79 -19 -97 -20 -88 -6 3 6 19
10 34 10 15 0 31 4 37 9 5 5 23 11 39 14 17 2 33 5 38 6 4 0 7 -3 7 -8z m-226
-30 c3 -4 -3 -16 -13 -25 -21 -19 -37 -7 -27 19 6 16 32 20 40 6z m425 -4 c8
-11 5 -13 -19 -9 -16 2 -27 8 -24 13 8 13 30 11 43 -4z m3241 3 c-20 -13 -43
-13 -35 0 3 6 16 10 28 10 18 0 19 -2 7 -10z m-3330 -21 c-44 -12 -67 -9 -30
5 19 7 39 10 45 7 5 -3 -1 -8 -15 -12z m841 -1 c44 -24 51 -43 15 -36 -19 4
-22 1 -18 -14 6 -24 -1 -23 -54 8 -44 26 -56 48 -31 57 25 11 50 6 88 -15z
m2413 1 c-31 -12 -40 -9 -20 6 10 8 24 11 29 8 6 -4 2 -10 -9 -14z m1325 5
c-16 -20 -83 -54 -106 -54 -10 0 -33 -9 -52 -21 -18 -11 -41 -19 -49 -17 -22
4 51 48 79 48 25 0 71 23 88 44 8 9 22 16 33 16 18 0 19 -2 7 -16z m471 -14
c-8 -5 -22 -10 -30 -10 -13 0 -13 1 0 10 8 5 22 10 30 10 13 0 13 -1 0 -10z
m-8860 -10 c0 -5 -16 -10 -36 -10 -21 0 -33 4 -29 10 3 6 19 10 36 10 16 0 29
-4 29 -10z m5850 -5 c-7 -9 -15 -13 -17 -11 -7 7 7 26 19 26 6 0 6 -6 -2 -15z
m-5930 1 c0 -2 -7 -7 -16 -10 -8 -3 -12 -2 -9 4 6 10 25 14 25 6z m8885 -16
c-3 -5 -13 -10 -21 -10 -8 0 -14 -9 -14 -20 0 -11 -4 -20 -9 -20 -5 0 -13 -10
-16 -21 -6 -17 1 -29 26 -53 30 -28 39 -31 89 -29 47 2 53 0 38 -11 -25 -18
-22 -26 7 -26 14 0 25 -4 25 -9 0 -12 -25 -21 -58 -21 -34 0 -77 -28 -125 -82
-22 -24 -36 -35 -33 -25 3 10 6 25 6 32 0 7 23 29 51 50 57 40 60 60 14 85
-16 9 -38 30 -47 47 -17 28 -17 32 -2 64 10 19 21 40 27 47 11 14 51 17 42 2z
m-5375 -9 c0 -9 -34 -21 -60 -21 -11 1 -10 4 4 15 22 16 56 20 56 6z m-3640
-32 c-30 -26 -32 -31 -22 -54 20 -44 -7 -88 -63 -100 -29 -6 -29 -6 -10 10 55
43 55 44 49 84 -5 33 -2 43 18 64 13 13 32 24 43 24 15 0 12 -6 -15 -28z
m4728 11 c18 -11 49 -20 69 -20 27 0 34 -3 26 -11 -17 -17 -90 -1 -121 27 -33
29 -19 31 26 4z m-348 0 c0 -5 -4 -10 -10 -10 -5 0 -10 5 -10 10 0 6 5 10 10
10 6 0 10 -4 10 -10z m11800 0 c0 -6 -11 -15 -25 -20 -14 -5 -25 -14 -25 -20
0 -6 -5 -8 -11 -5 -7 5 -2 16 12 31 23 25 49 32 49 14z m640 -10 c0 -5 -4 -10
-10 -10 -5 0 -10 5 -10 10 0 6 5 10 10 10 6 0 10 -4 10 -10z m-13275 -7 c-12
-2 -34 -15 -49 -28 -16 -13 -37 -27 -48 -30 -10 -4 -42 -22 -70 -41 -29 -18
-54 -31 -56 -29 -8 7 18 34 39 40 11 4 50 27 86 51 40 27 76 43 92 43 20 -1
22 -3 6 -6z m2465 -22 c-10 -20 -30 -29 -30 -14 0 10 33 44 37 39 3 -2 0 -14
-7 -25z m-1505 9 c3 -5 2 -10 -4 -10 -5 0 -13 5 -16 10 -3 6 -2 10 4 10 5 0
13 -4 16 -10z m11705 -5 c10 -12 10 -15 -4 -15 -9 0 -16 7 -16 15 0 8 2 15 4
15 2 0 9 -7 16 -15z m-292 -12 c-18 -3 -28 -12 -31 -26 -4 -18 -5 -17 -6 6 -1
24 2 27 32 26 29 -2 29 -2 5 -6z m784 -15 c-7 -7 -12 -8 -12 -2 0 14 12 26 19
19 2 -3 -1 -11 -7 -17z m-12136 -16 c-4 -3 -14 2 -24 12 -16 18 -16 18 6 6 13
-6 21 -14 18 -18z m11479 12 c14 -9 22 -20 19 -25 -3 -5 -15 -2 -27 6 -21 14
-26 15 -48 15 -5 0 -7 5 -4 10 9 15 32 12 60 -6z m-15255 -36 c19 -6 46 -15
59 -20 13 -5 53 -12 89 -15 40 -4 66 -11 69 -20 3 -7 11 -13 18 -13 6 0 24
-11 39 -25 15 -14 39 -28 54 -31 69 -17 109 -78 90 -136 -7 -20 -4 -37 11 -69
25 -52 25 -49 1 -49 -11 0 -20 -3 -20 -7 0 -5 -10 -19 -21 -33 l-20 -25 5 31
c2 17 9 41 16 53 6 12 10 27 7 34 -2 6 -10 -2 -18 -18 -32 -67 -111 -26 -80
41 10 24 9 28 -11 42 l-22 16 24 6 c30 7 39 30 11 30 -26 0 -28 20 -2 27 19 5
26 43 8 43 -5 0 -33 17 -63 39 -36 25 -70 41 -102 46 -26 4 -81 16 -122 27
-85 23 -136 24 -159 4 -18 -16 -38 -22 -103 -35 -50 -9 -68 4 -20 15 38 8 135
45 147 56 11 10 56 4 115 -14z m3810 -14 c8 -20 6 -35 -9 -67 -15 -32 -20 -37
-20 -20 -1 12 4 25 10 29 6 3 9 24 7 45 -4 46 -1 49 12 13z m11271 -25 c-9
-23 -10 -22 -10 11 -1 23 2 31 9 24 7 -7 7 -19 1 -35z m689 37 c0 -2 -7 -6
-15 -10 -8 -3 -15 -1 -15 4 0 6 7 10 15 10 8 0 15 -2 15 -4z m-8180 -32 c0 -8
-4 -12 -10 -9 -5 3 -10 13 -10 21 0 8 5 12 10 9 6 -3 10 -13 10 -21z m-4177
-3 c-7 -26 -39 -54 -55 -49 -9 3 -2 16 21 36 39 37 41 38 34 13z m12283 0
c-16 -11 -43 -22 -61 -25 -38 -7 -70 -39 -62 -60 4 -10 1 -13 -8 -10 -21 8
-29 44 -14 59 8 6 41 20 74 29 33 10 65 19 70 21 27 9 27 3 1 -14z m104 9 c0
-5 -2 -10 -4 -10 -3 0 -8 5 -11 10 -3 6 -1 10 4 10 6 0 11 -4 11 -10z m-16140
-9 c0 -5 -12 -11 -27 -14 -16 -3 -57 -24 -93 -45 -57 -35 -65 -44 -68 -73 -5
-46 -12 -53 -83 -74 l-62 -19 -22 28 c-22 27 -23 27 -58 12 -20 -8 -39 -11
-42 -6 -10 16 69 57 155 80 61 16 137 50 185 81 51 34 115 51 115 30z m4354
-23 c-7 -18 -90 -78 -107 -78 -8 0 -20 -7 -27 -15 -7 -8 -19 -15 -27 -15 -23
0 2 27 32 34 14 4 25 11 25 16 0 6 9 10 19 10 11 0 32 14 48 30 29 31 46 39
37 18z m-1482 -84 c9 -16 22 -42 29 -57 8 -18 23 -30 42 -34 17 -4 25 -9 19
-15 -6 -6 -24 -3 -46 6 -28 12 -41 26 -53 56 -9 22 -24 42 -34 45 -23 8 -24
28 -4 45 8 7 15 20 16 29 1 9 4 2 8 -15 4 -17 15 -44 23 -60z m1562 26 c-9
-20 -9 -41 1 -65 l8 -20 -21 20 c-17 17 -20 28 -15 69 5 45 7 47 20 30 7 -10
10 -25 7 -34z m3500 25 c3 -8 1 -15 -4 -15 -6 0 -10 7 -10 15 0 8 2 15 4 15 2
0 6 -7 10 -15z m7242 6 c-7 -11 -56 -21 -56 -10 0 4 12 10 28 12 15 2 28 5 30
6 2 0 1 -3 -2 -8z m-11508 -35 c-9 -21 -9 -32 0 -47 16 -25 15 -40 -2 -33 -21
8 -27 65 -9 92 19 31 27 22 11 -12z m11372 24 c17 -6 9 -7 -25 -3 -27 3 -52 7
-54 9 -8 7 54 2 79 -6z m-15435 -25 c0 -15 -22 -31 -91 -65 -50 -25 -97 -50
-105 -56 -8 -7 -32 -15 -54 -19 -22 -3 -56 -15 -75 -25 l-35 -19 35 0 c19 0
55 9 80 21 25 12 52 23 60 24 8 2 26 6 39 10 34 10 19 -12 -22 -30 -141 -65
-217 -72 -217 -21 0 17 10 25 48 38 76 25 196 78 212 94 13 13 12 17 -9 34
-30 25 -24 32 16 17 25 -9 34 -8 54 6 31 22 64 17 64 -9z m8597 -2 c23 -26 68
-109 68 -127 0 -4 12 -23 26 -42 22 -29 26 -42 10 -31 -2 1 -13 -7 -25 -17
-23 -21 -28 -52 -8 -59 6 -2 -3 -11 -21 -21 -40 -20 -61 -11 -97 42 -25 37
-33 86 -15 97 6 3 10 15 10 26 0 29 18 23 22 -8 2 -22 8 -27 23 -25 36 6 48
26 40 70 -7 45 -58 104 -81 95 -14 -5 -19 8 -7 20 13 13 29 7 55 -20z m6713
17 c-3 -5 -13 -10 -21 -10 -8 0 -12 5 -9 10 3 6 13 10 21 10 8 0 12 -4 9 -10z
m845 -10 c0 -11 -4 -20 -10 -20 -5 0 -10 9 -10 20 0 11 5 20 10 20 6 0 10 -9
10 -20z m-7630 -20 c0 -5 -8 -10 -17 -10 -15 0 -16 2 -3 10 19 12 20 12 20 0z
m-135 -18 c-3 -3 -11 0 -18 7 -9 10 -8 11 6 5 10 -3 15 -9 12 -12z m880 -8
c23 -24 23 -27 8 -50 -19 -29 -42 -30 -84 -5 -29 18 -34 18 -55 4 -14 -9 -24
-11 -24 -5 0 19 41 34 75 28 34 -7 68 15 45 29 -5 3 -10 10 -10 16 0 17 21 9
45 -17z m-790 6 c-3 -5 -14 -10 -23 -9 -14 0 -13 2 3 9 27 11 27 11 20 0z
m-597 -48 c6 -20 -47 -14 -60 7 -9 15 -16 17 -29 10 -11 -6 -20 -5 -24 1 -3 5
1 10 9 10 9 0 16 4 16 10 0 12 83 -23 88 -38z m8482 23 c0 -3 -9 -5 -20 -5
-11 0 -20 7 -20 15 0 13 4 14 20 5 11 -6 20 -13 20 -15z m-7850 -40 c-7 -8
-17 -15 -22 -15 -6 0 -5 7 2 15 7 8 17 15 22 15 6 0 5 -7 -2 -15z m7915 5 c3
-5 1 -10 -4 -10 -6 0 -11 5 -11 10 0 6 2 10 4 10 3 0 8 -4 11 -10z m-11599
-35 c-1 -36 -12 -41 -30 -13 -7 12 -6 21 3 32 20 24 28 19 27 -19z m-1402 -10
c15 -11 16 -15 5 -15 -8 0 -24 7 -35 15 -14 11 -15 14 -4 14 8 0 24 -6 34 -14z
m592 -26 c-8 -21 -15 -27 -15 -16 -1 17 20 59 27 53 1 -2 -4 -19 -12 -37z
m3866 8 c3 -30 1 -33 -19 -29 -33 6 -36 18 -11 41 12 12 23 21 24 21 1 0 4
-15 6 -33z m574 1 c-18 -26 -22 -17 -5 14 6 11 13 17 16 15 3 -3 -2 -16 -11
-29z m659 12 c3 -5 1 -10 -4 -10 -6 0 -11 5 -11 10 0 6 2 10 4 10 3 0 8 -4 11
-10z m-295 -18 c0 -4 -15 -16 -32 -26 l-33 -19 24 26 c24 27 41 34 41 19z
m7320 -2 c0 -5 -2 -10 -4 -10 -3 0 -8 5 -11 10 -3 6 -1 10 4 10 6 0 11 -4 11
-10z m-8377 -36 c-7 -20 -10 -18 -15 11 -4 20 -2 23 8 14 7 -6 10 -17 7 -25z
m-4217 6 c20 -8 24 -14 16 -22 -13 -13 -62 4 -62 22 0 13 12 13 46 0z m5584
-3 c0 -17 -58 -73 -67 -64 -3 4 6 17 20 30 15 12 27 28 27 35 0 7 5 12 10 12
6 0 10 -6 10 -13z m6050 -17 c-14 -27 -14 -28 29 -50 22 -11 43 -25 46 -31 14
-22 -4 -20 -44 5 -22 14 -48 26 -56 26 -26 0 -27 26 -3 53 25 28 44 26 28 -3z
m-11210 15 c0 -2 -33 -23 -74 -45 -66 -36 -77 -46 -92 -86 -9 -24 -21 -44 -25
-44 -11 0 -11 -2 4 40 24 67 46 86 134 120 26 10 49 19 51 19 1 1 2 -1 2 -4z
m3951 -12 c13 -16 12 -17 -3 -4 -10 7 -18 15 -18 17 0 8 8 3 21 -13z m549 -15
c0 -6 -7 -5 -15 2 -8 7 -15 17 -15 22 0 6 7 5 15 -2 8 -7 15 -17 15 -22z
m-4850 2 c0 -5 -6 -10 -14 -10 -8 0 -18 5 -21 10 -3 6 3 10 14 10 12 0 21 -4
21 -10z m4090 -10 c10 -6 2 -7 -25 -3 -49 7 -58 13 -19 13 16 0 36 -5 44 -10z
m140 -41 c15 -56 10 -71 -27 -81 -25 -6 -32 -14 -35 -36 -2 -19 -9 -28 -26
-30 -21 -3 -22 -2 -11 20 7 13 15 30 20 38 4 8 12 14 18 13 6 -2 13 8 17 22 5
20 9 23 20 14 18 -14 19 3 3 33 -8 15 -13 17 -19 8 -6 -9 -14 -8 -34 5 -36 24
-33 30 19 32 44 2 45 2 55 -38z m120 -13 c0 -5 -7 -1 -15 10 -8 10 -14 24 -14
29 0 6 6 1 14 -9 8 -11 15 -24 15 -30z m-417 13 c-6 -6 -19 -9 -29 -6 -17 3
-16 5 6 14 28 12 39 8 23 -8z m937 -4 c0 -7 -9 -24 -21 -39 -18 -23 -28 -26
-80 -26 -38 0 -58 4 -54 10 3 6 26 10 50 10 47 0 75 19 75 50 0 13 5 17 15 14
8 -4 15 -12 15 -19z m430 15 c0 -5 -5 -10 -11 -10 -5 0 -7 5 -4 10 3 6 8 10
11 10 2 0 4 -4 4 -10z m111 -15 c0 -16 -25 -17 -46 -1 -18 13 -17 14 13 12 18
-1 32 -6 33 -11z m-4171 -15 c0 -25 -27 -37 -43 -21 -9 10 -8 16 7 27 27 19
36 18 36 -6z m4010 8 c-14 -6 -39 -18 -57 -26 -28 -14 -35 -14 -59 -1 -21 11
-23 15 -10 17 9 2 22 -1 29 -6 9 -8 19 -5 35 7 13 9 37 18 55 18 31 2 31 2 7
-9z m7642 0 c-7 -7 -12 -23 -12 -37 -1 -25 -1 -26 -16 -6 -14 18 -13 22 7 38
24 19 39 23 21 5z m-12866 -36 c-8 -15 -17 -44 -21 -63 -5 -29 -2 -41 17 -63
22 -26 26 -27 53 -15 17 7 38 22 47 33 18 22 32 18 23 -6 -8 -20 -91 -57 -115
-51 -27 7 -53 68 -46 107 8 40 38 96 48 90 4 -3 2 -17 -6 -32z m11784 28 c0
-5 -2 -10 -4 -10 -3 0 -8 5 -11 10 -3 6 -1 10 4 10 6 0 11 -4 11 -10z m-7742
-25 c-6 -14 -13 -24 -14 -22 -6 6 9 47 17 47 5 0 3 -11 -3 -25z m8562 15 c0
-5 -2 -10 -4 -10 -3 0 -8 5 -11 10 -3 6 -1 10 4 10 6 0 11 -4 11 -10z m-925
-10 c3 -5 -1 -10 -9 -10 -8 0 -18 5 -21 10 -3 6 1 10 9 10 8 0 18 -4 21 -10z
m155 -16 c0 -14 -3 -14 -15 -4 -8 7 -15 14 -15 16 0 2 7 4 15 4 8 0 15 -7 15
-16z m-14350 -58 c0 -12 -30 -46 -41 -46 -4 0 -4 14 1 32 5 17 7 43 4 57 -6
26 -5 26 15 -4 11 -16 21 -34 21 -39z m15170 49 c11 -13 10 -14 -4 -9 -9 3
-16 10 -16 15 0 13 6 11 20 -6z m-8790 -8 c0 -19 -27 -53 -35 -45 -12 12 4 58
20 58 8 0 15 -6 15 -13z m810 -1 c0 -2 -7 -7 -16 -10 -8 -3 -12 -2 -9 4 6 10
25 14 25 6z m-297 -20 c22 -17 22 -26 -2 -26 -10 0 -21 9 -24 20 -6 23 1 25
26 6z m242 -42 c-42 -34 -52 -30 -13 5 18 16 35 27 38 24 3 -3 -8 -16 -25 -29z
m8110 16 c10 -11 14 -20 9 -20 -5 0 -17 9 -27 20 -9 11 -13 20 -8 20 4 0 16
-9 26 -20z m143 -19 c17 -55 15 -61 -8 -23 -21 34 -26 62 -12 62 5 0 14 -17
20 -39z m-926 17 c8 -7 23 -18 33 -24 11 -7 19 -19 19 -27 -1 -9 4 -13 11 -11
7 3 16 1 20 -5 11 -19 27 -12 20 9 -9 27 8 25 36 -5 13 -13 29 -25 34 -25 16
-1 79 -59 72 -66 -4 -4 -15 0 -24 8 -10 8 -26 18 -35 21 -10 4 -18 11 -18 16
0 16 -41 34 -51 24 -6 -6 1 -20 16 -37 14 -16 24 -31 21 -34 -3 -3 -17 7 -31
23 -25 26 -27 26 -45 10 -14 -13 -23 -14 -38 -6 -26 14 -36 40 -17 47 19 8 19
24 0 24 -8 0 -15 -6 -15 -12 0 -7 -9 1 -20 17 -32 48 -23 85 12 53z m-10612
-28 c0 -5 -7 -10 -15 -10 -8 0 -15 -7 -15 -15 0 -8 -7 -15 -15 -15 -9 0 -15
-9 -15 -24 0 -23 -30 -44 -52 -38 -5 1 -8 -4 -8 -12 0 -8 -5 -18 -10 -21 -7
-4 -9 2 -4 19 6 24 4 26 -27 26 l-34 1 24 19 c13 11 31 20 41 20 26 0 84 26
100 44 14 18 30 21 30 6z m2630 -10 c0 -5 -9 -10 -21 -10 -11 0 -17 5 -14 10
3 6 13 10 21 10 8 0 14 -4 14 -10z m8810 -10 c0 -11 -2 -20 -5 -20 -2 0 -9 9
-15 20 -9 16 -8 20 5 20 8 0 15 -9 15 -20z m-8366 -15 c-19 -29 -29 -31 -38
-10 -5 15 18 34 42 35 9 0 8 -7 -4 -25z m-6892 -49 c13 -6 33 -30 45 -54 12
-24 27 -50 34 -58 9 -11 8 -18 -5 -32 -9 -10 -16 -24 -16 -30 0 -6 -11 -23
-24 -37 -14 -15 -27 -32 -29 -38 -6 -20 -37 2 -37 28 0 18 -5 25 -19 25 -10 0
-21 9 -24 20 -3 11 0 20 6 20 6 0 -8 17 -31 38 -23 22 -42 47 -42 58 1 18 1
18 16 -1 8 -11 18 -24 22 -30 13 -19 71 -55 90 -55 30 0 32 10 10 48 -30 54
-67 83 -100 77 -16 -2 -28 0 -28 5 0 5 16 12 36 16 24 4 33 11 30 20 -19 46
-18 48 12 20 17 -16 41 -34 54 -40z m6322 38 c3 -8 2 -12 -4 -9 -6 3 -10 10
-10 16 0 14 7 11 14 -7z m66 7 c0 -5 -9 -11 -20 -14 -20 -5 -26 3 -13 16 9 10
33 8 33 -2z m288 -18 c2 -16 -3 -22 -19 -25 -26 -3 -39 -28 -15 -28 26 0 18
-17 -13 -30 -44 -18 -75 -10 -79 20 -2 19 5 29 29 43 21 11 29 22 25 33 -5 12
1 15 32 12 29 -2 38 -8 40 -25z m333 -5 c-13 -10 -31 -18 -40 -18 -11 0 -7 7
14 24 16 13 34 22 39 18 5 -3 -1 -13 -13 -24z m-176 -27 c-14 -12 -94 -21
-100 -11 -7 11 19 17 70 19 23 1 35 -3 30 -8z m-121 -10 c7 -11 -22 -23 -35
-15 -5 3 -7 10 -4 15 8 12 32 12 39 0z m-2939 -32 c-6 -27 -4 -31 24 -42 17
-6 31 -15 31 -20 0 -5 -7 -6 -16 -3 -9 3 -24 6 -34 6 -21 0 -34 57 -18 78 16
19 20 14 13 -19z m3155 21 c0 -31 -107 -98 -136 -85 -11 4 -14 9 -9 10 69 18
94 31 111 56 19 29 34 37 34 19z m-3520 -15 c23 -14 20 -14 -40 -9 -56 5 -150
-8 -150 -21 0 -2 11 -16 25 -31 28 -31 32 -56 10 -74 -18 -15 -19 -7 -4 22 9
16 8 23 -2 29 -19 12 -86 11 -94 -1 -3 -5 -15 -10 -25 -10 -10 0 -34 -9 -54
-20 -34 -21 -38 -20 -49 13 -5 14 4 22 41 39 26 12 70 32 97 44 58 27 78 31
160 32 36 1 70 -4 85 -13z m115 5 c-3 -5 -17 -10 -31 -10 -14 0 -22 4 -19 10
3 6 17 10 31 10 14 0 22 -4 19 -10z m11097 -37 c10 -9 18 -22 18 -29 0 -7 8
-26 17 -43 10 -16 14 -33 10 -38 -9 -9 -25 12 -34 47 -3 13 -15 33 -25 44 -31
34 -20 50 14 19z m104 2 c16 -12 16 -14 3 -15 -9 0 -22 7 -29 15 -16 19 0 19
26 0z m-172 -65 c3 -30 3 -46 0 -35 -3 11 -10 24 -15 30 -5 5 -9 25 -9 44 0
54 18 25 24 -39z m-10893 40 c-25 -21 -41 -26 -41 -11 0 5 12 14 28 19 39 15
40 14 13 -8z m3098 -16 c-7 -8 -29 -24 -50 -35 -34 -17 -40 -17 -66 -4 -25 13
-26 15 -6 15 12 0 25 5 28 10 3 6 16 8 29 4 14 -3 27 1 35 10 8 9 20 16 28 16
13 0 13 -3 2 -16z m-2889 -14 c0 -5 -2 -10 -4 -10 -3 0 -8 5 -11 10 -3 6 -1
10 4 10 6 0 11 -4 11 -10z m10850 1 c0 -12 -20 -25 -27 -18 -7 7 6 27 18 27 5
0 9 -4 9 -9z m-12715 -22 c-8 -12 -45 -12 -45 0 0 10 30 20 43 14 4 -3 5 -9 2
-14z m1595 6 c-7 -8 -9 -15 -4 -15 5 0 1 -5 -9 -11 -26 -15 -32 -4 -10 19 21
23 42 29 23 7z m-586 -12 c9 -22 -27 -58 -48 -50 -24 9 -20 46 7 57 31 12 34
12 41 -7z m-938 -22 c7 -13 16 -27 22 -33 6 -6 6 -19 -1 -38 -9 -24 -8 -32 6
-48 22 -24 21 -31 -3 -25 -11 3 -20 10 -20 15 0 5 -4 7 -10 3 -5 -3 -19 4 -31
16 l-22 22 22 -6 c17 -4 25 0 33 18 9 19 7 31 -11 60 -11 20 -21 39 -21 41 0
14 26 -5 36 -25z m1809 19 c3 -5 1 -10 -4 -10 -6 0 -11 5 -11 10 0 6 2 10 4
10 3 0 8 -4 11 -10z m-1941 -11 c-2 -4 -18 -10 -36 -13 -18 -4 -49 -10 -68
-14 -40 -8 -80 -32 -80 -47 0 -26 22 -33 56 -19 46 19 43 4 -4 -22 -32 -18
-42 -19 -72 -8 -45 15 -50 38 -11 59 17 8 35 25 42 36 7 15 17 19 32 15 12 -2
33 1 46 8 24 13 103 17 95 5z m12786 -11 c0 -6 -6 -5 -15 2 -8 7 -15 14 -15
16 0 2 7 1 15 -2 8 -4 15 -11 15 -16z m-14825 -55 c-9 -20 -18 -39 -20 -42
-10 -9 -5 29 7 54 18 40 30 29 13 -12z m3312 19 c-21 -23 -21 -36 -1 -67 9
-14 12 -25 8 -25 -5 1 -19 17 -31 36 -22 34 -22 35 -3 54 25 25 49 27 27 2z
m649 3 c-10 -8 -39 -17 -65 -20 -25 -4 -58 -16 -74 -26 -15 -11 -32 -17 -37
-14 -6 3 -10 0 -10 -7 0 -7 -13 2 -29 20 -17 17 -37 32 -45 32 -9 0 -16 5 -16
11 0 8 12 9 38 5 54 -10 151 -9 197 2 57 14 62 13 41 -3z m2851 -29 c1 -1 5
-14 9 -31 l7 -29 -25 25 c-14 14 -38 35 -54 47 l-29 22 45 -17 c25 -9 46 -17
47 -17z m8043 24 c0 -5 -2 -10 -4 -10 -3 0 -8 5 -11 10 -3 6 -1 10 4 10 6 0
11 -4 11 -10z m-5772 -24 c2 -10 -4 -26 -13 -36 -10 -11 -15 -26 -12 -34 7
-16 -22 -76 -36 -76 -9 0 2 70 14 85 4 6 5 16 1 22 -9 14 -104 -8 -110 -26 -2
-6 1 -26 7 -44 10 -28 9 -34 -10 -49 -11 -10 -38 -23 -60 -29 -32 -10 -42 -9
-64 5 -36 24 -31 39 8 20 31 -15 34 -14 77 10 32 18 39 26 24 26 -11 0 -30 9
-43 21 -21 20 -21 22 -5 40 9 10 24 19 33 19 9 0 38 11 66 24 106 50 117 52
123 22z m5784 -75 c13 -5 17 -10 10 -15 -14 -9 -78 52 -87 84 -5 19 1 14 24
-18 18 -24 41 -46 53 -51z m28 57 c0 -6 -6 -5 -15 2 -8 7 -15 14 -15 16 0 2 7
1 15 -2 8 -4 15 -11 15 -16z m-5054 -9 c25 -12 53 -34 62 -48 9 -14 24 -31 32
-38 13 -10 13 -14 -2 -29 -14 -15 -21 -15 -48 -4 -23 10 -37 10 -55 2 -28 -13
-59 -67 -49 -85 5 -9 4 -9 -6 0 -23 21 -3 69 38 89 20 10 40 18 44 19 4 0 12
5 17 10 18 18 -15 52 -69 70 -28 9 -48 21 -44 26 8 14 30 11 80 -12z m-7758
-4 c17 4 23 2 20 -7 -3 -7 -14 -14 -24 -16 -26 -4 -74 14 -74 28 0 6 9 6 27
-1 15 -5 38 -7 51 -4z m6637 -15 c0 -10 -9 -14 -27 -12 -17 2 -37 -6 -52 -19
-24 -21 -34 -24 -38 -14 -5 10 86 64 102 62 8 -1 15 -9 15 -17z m1025 11 c0
-5 -19 -20 -43 -34 -52 -31 -127 -100 -127 -117 0 -7 11 -23 25 -36 15 -14 25
-34 25 -51 0 -22 -2 -25 -10 -13 -5 8 -10 22 -10 30 0 8 -13 21 -30 28 -20 9
-30 21 -30 36 0 23 54 86 74 86 6 0 17 9 24 20 22 36 102 76 102 51z m-7410
-31 c10 -5 28 -26 40 -45 21 -34 21 -37 6 -61 -15 -21 -22 -24 -52 -18 -31 6
-35 4 -44 -23 -12 -34 -74 -63 -93 -44 -8 8 -6 11 9 11 11 0 37 18 58 39 21
21 50 42 65 45 14 3 33 10 41 16 13 8 10 14 -15 35 -16 13 -38 24 -47 25 -22
0 -24 30 -2 30 8 0 24 -4 34 -10z m-2386 -34 c-3 -14 -10 -26 -15 -26 -12 0
-11 4 3 35 14 31 21 26 12 -9z m3454 14 c26 0 41 -4 37 -10 -15 -24 -105 -2
-105 26 0 4 5 3 12 -4 7 -7 32 -12 56 -12z m-1264 -1 c-4 -7 2 -9 16 -7 13 2
25 -2 27 -8 6 -18 -70 -26 -80 -9 -13 24 -28 17 -21 -10 4 -15 2 -25 -5 -25
-6 0 -11 6 -11 14 0 8 -4 17 -8 20 -15 9 -93 -36 -104 -60 -6 -13 -15 -24 -21
-24 -5 0 0 15 11 33 22 34 85 73 130 80 54 8 73 7 66 -4z m1343 5 c-3 -3 -12
-4 -19 -1 -8 3 -5 6 6 6 11 1 17 -2 13 -5z m3363 2 c0 -3 -4 -8 -10 -11 -5 -3
-10 -1 -10 4 0 6 5 11 10 11 6 0 10 -2 10 -4z m1946 -7 c3 -6 2 -15 -3 -20
-13 -13 -43 -1 -43 17 0 16 36 19 46 3z m5864 -2 c0 -8 -32 -68 -35 -65 -9 10
9 68 21 68 8 0 14 -2 14 -3z m-11357 -24 c14 -8 7 -24 -15 -32 -13 -5 -42 -17
-66 -26 -49 -21 -63 -14 -36 17 19 21 19 21 -1 13 -58 -23 -99 -35 -107 -33
-6 2 1 8 14 14 68 32 101 44 118 44 10 0 22 5 25 10 5 9 47 5 68 -7z m195 -5
c-6 -17 -36 -34 -44 -25 -4 4 1 14 12 22 23 18 37 19 32 3z m4170 -9 c7 -12
10 -24 6 -27 -4 -4 -9 -2 -11 4 -2 7 -13 10 -23 7 -34 -9 -24 -48 20 -83 22
-17 40 -37 40 -43 0 -7 11 -25 25 -40 14 -15 23 -27 20 -27 -13 0 -55 33 -55
43 0 14 -51 67 -64 67 -12 0 -46 55 -46 75 0 15 39 44 60 44 8 1 21 -8 28 -20z
m-818 2 c0 -6 -4 -13 -10 -16 -5 -3 -10 1 -10 9 0 9 5 16 10 16 6 0 10 -4 10
-9z m1743 -8 c-8 -24 -23 -43 -34 -43 -4 0 0 13 9 30 18 32 35 41 25 13z
m-8690 -46 c-10 -14 -26 -30 -35 -36 -26 -16 -23 5 3 27 12 9 27 22 33 28 19
20 19 7 -1 -19z m3522 23 c-3 -5 -22 -12 -43 -16 -20 -4 -54 -15 -75 -26 -21
-10 -50 -23 -65 -28 l-27 -10 23 19 c12 11 41 26 65 34 90 31 102 35 115 36 7
1 11 -3 7 -9z m5631 -15 c10 -8 37 -24 59 -36 107 -54 168 -102 180 -140 9
-27 -36 -86 -70 -93 -59 -13 -109 -15 -122 -5 -6 6 -17 8 -22 5 -6 -4 -36 8
-68 25 -36 19 -86 36 -131 44 -79 13 -70 14 -162 -38 -18 -10 -39 -16 -48 -12
-19 7 103 74 140 77 50 3 145 -15 188 -37 117 -59 199 -67 241 -22 22 24 25
66 7 89 -7 8 -49 35 -93 58 -95 52 -135 78 -135 91 0 13 13 11 36 -6z m5851
-7 c-3 -8 -6 -5 -6 6 -1 11 2 17 5 13 3 -3 4 -12 1 -19z m-12867 -2 c0 -2 -7
-9 -15 -16 -13 -11 -14 -10 -9 4 5 14 24 23 24 12z m138 -31 c0 -23 -4 -35
-11 -32 -17 5 -21 36 -7 52 17 21 18 20 18 -20z m882 25 c0 -5 -8 -10 -17 -10
-15 0 -16 2 -3 10 19 12 20 12 20 0z m4385 -2 c15 -7 34 -30 45 -56 24 -53 24
-58 5 -42 -8 7 -15 21 -15 32 0 12 -12 24 -34 33 -37 16 -50 28 -39 39 8 8 8
8 38 -6z m7173 -15 c-15 -36 -38 -62 -38 -45 0 20 29 72 40 72 6 0 5 -12 -2
-27z m-6810 -23 c22 -22 44 -40 50 -40 6 0 14 -4 17 -10 15 -25 -39 -7 -68 23
-18 17 -44 40 -57 49 -24 16 -24 17 -4 17 12 1 39 -16 62 -39z m-418 26 c0 -2
-7 -9 -15 -16 -13 -11 -14 -10 -9 4 5 14 24 23 24 12z m1170 -5 c0 -6 -5 -13
-11 -16 -6 -4 -14 -17 -19 -29 l-9 -21 0 22 c-1 31 9 53 25 53 8 0 14 -4 14
-9z m6390 -36 c0 -6 -9 -18 -20 -28 -11 -9 -20 -13 -20 -7 0 5 5 12 11 15 6 4
7 20 4 38 -7 31 -6 31 9 12 8 -11 16 -25 16 -30z m-11986 10 c-10 -8 -25 -15
-31 -15 -7 0 -27 -19 -44 -42 -25 -34 -30 -38 -26 -18 4 14 7 31 7 38 0 7 24
23 53 36 55 25 73 25 41 1z m3860 2 c-9 -26 -52 -49 -70 -39 -13 7 -10 10 14
15 17 4 36 16 42 27 13 24 24 22 14 -3z m-4906 -7 c-7 -10 -14 -18 -15 -16 -6
6 9 36 18 36 5 0 4 -9 -3 -20z m4644 -10 l43 -9 -44 3 c-24 3 -49 10 -55 17
-8 9 -8 10 1 5 7 -4 32 -11 55 -16z m758 -9 c-25 -20 -70 -33 -70 -21 0 9 61
39 80 39 10 0 6 -6 -10 -18z m-668 -13 c-9 -9 -15 -9 -24 0 -9 9 -7 12 12 12
19 0 21 -3 12 -12z m508 -2 c-49 -15 -60 -24 -60 -46 0 -30 -19 -33 -26 -4
-10 38 24 64 80 63 l41 -1 -35 -12z m7295 -6 c3 -5 -1 -10 -9 -10 -9 0 -16 5
-16 10 0 6 4 10 9 10 6 0 13 -4 16 -10z m-14645 -3 c0 -24 -47 -119 -70 -139
-45 -41 -58 -34 -18 10 30 33 44 59 62 115 4 13 26 26 26 14z m8702 -28 c-5
-13 -6 -33 -2 -44 9 -23 3 -38 -11 -30 -12 8 -11 62 2 87 14 26 22 17 11 -13z
m1349 11 c13 -10 20 -19 16 -20 -11 0 -67 29 -67 35 0 12 30 3 51 -15z m4699
10 c0 -5 -5 -10 -11 -10 -5 0 -7 5 -4 10 3 6 8 10 11 10 2 0 4 -4 4 -10z
m-6621 -16 c13 -12 -8 -10 -29 2 l-25 15 25 -7 c14 -3 27 -8 29 -10z m6465
-28 c-10 -20 -21 -36 -25 -36 -3 0 3 18 14 40 11 23 21 39 24 37 2 -3 -4 -21
-13 -41z m-12529 23 c-10 -16 4 -59 19 -59 7 0 25 9 40 21 14 11 26 16 26 12
0 -10 -54 -53 -66 -53 -14 0 -44 33 -44 50 0 9 5 21 12 28 15 15 21 16 13 1z
m5582 -14 c1 -16 1 -16 -3 -2 -6 20 -25 22 -42 5 -7 -7 -12 -8 -12 -2 0 31 54
30 57 -1z m7683 10 c0 -8 -7 -15 -15 -15 -16 0 -20 12 -8 23 11 12 23 8 23 -8z
m-7158 -25 c22 -39 15 -39 -12 0 -12 17 -18 30 -13 30 4 0 16 -14 25 -30z
m1722 -25 c16 -16 34 -39 41 -50 18 -29 27 -75 15 -75 -5 0 -10 6 -10 13 0 27
-33 80 -71 114 -22 20 -39 40 -39 45 0 12 24 -5 64 -47z m-3294 -8 c0 -29 -17
-11 -22 24 -5 29 -4 30 9 14 7 -11 13 -27 13 -38z m1163 30 c15 -12 27 -28 27
-35 0 -18 -5 -15 -39 19 -17 17 -31 32 -31 35 0 10 19 2 43 -19z m2342 13 c3
-5 -1 -10 -9 -10 -9 0 -16 5 -16 10 0 6 4 10 9 10 6 0 13 -4 16 -10z m5105 2
c0 -4 -9 -13 -20 -19 -20 -13 -37 -2 -25 17 7 12 45 14 45 2z m-85 -23 c6 -19
0 -38 -9 -28 -10 12 -16 49 -7 49 5 0 13 -9 16 -21z m-4927 -1 c7 -7 12 -20
12 -30 0 -17 -1 -17 -20 2 -11 11 -28 20 -37 20 -15 0 -16 2 -3 10 20 13 34
12 48 -2z m-7218 -33 c-7 -8 -20 -15 -29 -15 -11 1 -8 5 9 15 32 18 35 18 20
0z m4241 -16 c-24 -17 -45 -28 -48 -25 -9 9 49 56 70 56 15 0 10 -7 -22 -31z
m405 4 c-4 -9 -2 -20 5 -23 6 -4 -3 -9 -20 -12 -17 -2 -31 -1 -31 4 0 4 4 8 9
8 5 0 13 9 16 20 3 11 11 20 17 20 5 0 7 -8 4 -17z m590 -8 c6 -24 0 -44 -10
-34 -11 11 -17 59 -7 59 6 0 13 -11 17 -25z m6355 2 c-1 -12 -15 -9 -19 4 -3
6 1 10 8 8 6 -3 11 -8 11 -12z m-11666 -7 c-3 -5 -11 -10 -16 -10 -6 0 -7 5
-4 10 3 6 11 10 16 10 6 0 7 -4 4 -10z m5155 0 c13 -9 13 -10 0 -10 -8 0 -22
5 -30 10 -13 9 -13 10 0 10 8 0 22 -5 30 -10z m2183 -36 c-7 -19 -52 -29 -65
-16 -8 8 -4 14 15 21 15 6 27 18 27 28 1 17 1 17 15 0 7 -11 11 -25 8 -33z
m-2353 20 c0 -12 -4 -14 -12 -7 -7 6 -20 13 -28 16 -9 3 -3 6 13 6 19 1 27 -4
27 -15z m-5048 -14 c-41 -25 -45 -25 -32 0 7 12 21 20 38 20 l27 0 -33 -20z
m5765 -13 c3 -4 -14 -4 -39 -1 -27 4 -54 2 -67 -5 -13 -7 -21 -8 -21 -2 0 6
12 17 26 24 21 11 33 11 60 2 19 -6 37 -14 41 -18z m129 18 c-7 -20 4 -19 20
2 7 10 15 16 18 13 10 -11 -6 -46 -27 -60 -25 -16 -137 -22 -137 -8 0 27 23
48 53 49 18 0 41 4 52 9 28 12 28 12 21 -5z m-2165 -46 c-10 -23 -10 -23 -10
7 -1 17 2 34 7 38 11 12 14 -18 3 -45z m1554 33 c-3 -3 -11 0 -18 7 -9 10 -8
11 6 5 10 -3 15 -9 12 -12z m6013 2 c12 -8 20 -20 16 -25 -4 -6 -13 -4 -25 7
-10 9 -25 14 -35 10 -14 -5 -15 -4 -4 9 16 19 20 19 48 -1z m-7004 -19 c-9
-14 -20 -25 -25 -25 -5 0 -9 -8 -9 -17 -1 -27 -26 -68 -34 -55 -8 13 38 108
56 115 26 10 28 7 12 -18z m8161 5 c3 -5 2 -10 -4 -10 -5 0 -13 5 -16 10 -3 6
-2 10 4 10 5 0 13 -4 16 -10z m-7642 -13 c3 -8 1 -20 -4 -28 -6 -10 -9 -7 -9
14 0 29 5 35 13 14z m457 -13 c0 -10 -6 -14 -15 -10 -10 3 -17 -3 -21 -20 -6
-25 -6 -25 -21 -4 -21 29 -9 50 27 50 21 0 30 -5 30 -16z m340 8 c0 -4 -9 -13
-21 -20 -14 -9 -18 -19 -14 -32 9 -28 -10 -25 -23 4 -8 18 -7 27 6 40 17 16
52 22 52 8z m1720 -18 c12 -31 12 -34 2 -34 -8 0 -32 43 -32 55 0 16 22 1 30
-21z m3883 11 c-3 -9 -8 -14 -10 -11 -3 3 -2 9 2 15 9 16 15 13 8 -4z m-6773
-11 c0 -2 -12 -4 -27 -4 -21 0 -24 3 -14 9 13 8 41 5 41 -5z m300 -16 c0 -26
-9 -19 -15 11 -2 12 0 19 6 16 5 -4 9 -16 9 -27z m410 8 c0 -8 7 -19 15 -26
12 -10 12 -16 3 -34 -11 -20 -12 -20 -19 9 -4 17 -11 41 -15 54 -5 17 -4 22 4
17 7 -4 12 -13 12 -20z m-8090 1 c0 -7 -7 -22 -15 -33 -19 -26 -18 -44 5 -74
23 -29 26 -50 7 -50 -7 0 -19 20 -26 45 -15 52 -7 125 15 125 8 0 14 -6 14
-13z m14419 -11 c9 -11 4 -13 -29 -13 -33 0 -38 2 -29 13 6 8 19 14 29 14 10
0 23 -6 29 -14z m-7749 -5 c0 -6 -4 -13 -10 -16 -5 -3 -10 1 -10 9 0 9 5 16
10 16 6 0 10 -4 10 -9z m7957 -47 c-9 -9 -37 15 -37 33 0 10 6 8 22 -7 12 -11
19 -23 15 -26z m-4567 -5 c0 -45 13 -75 44 -101 13 -10 16 -17 8 -18 -21 0
-72 29 -73 43 -3 37 -4 103 -1 110 9 21 22 2 22 -34z m4418 25 c12 -8 22 -22
22 -30 0 -19 -5 -18 -34 10 -40 36 -31 51 12 20z m-7103 -5 c-8 -11 -42 -12
-49 -1 -3 5 8 9 25 10 16 0 27 -4 24 -9z m1395 -29 c0 -28 -6 -25 -23 10 -15
28 -15 29 4 20 10 -6 19 -20 19 -30z m6573 -3 c-7 -11 -23 12 -23 32 0 11 4 9
14 -4 8 -11 12 -24 9 -28z m-5002 -4 c1 -7 1 -35 1 -63 0 -27 0 -54 -1 -60 -1
-10 -77 -50 -97 -50 -6 0 -17 7 -25 16 -11 13 -9 15 12 13 56 -5 67 0 79 37
12 36 10 94 -5 127 -7 17 -6 18 14 6 11 -8 21 -19 22 -26z m3729 30 c-1 -18
-18 -35 -24 -24 -4 6 -4 16 -1 21 7 12 25 13 25 3z m-11310 -27 c0 -8 -4 -18
-10 -21 -5 -3 -10 3 -10 14 0 12 5 21 10 21 6 0 10 -6 10 -14z m5723 5 c4 -1
7 -10 7 -21 0 -24 -34 -27 -56 -6 -22 23 -17 35 14 31 15 -2 30 -4 35 -4z m67
-31 c5 -19 6 -29 1 -24 -10 10 -26 72 -17 63 4 -4 11 -21 16 -39z m-5840 5
c13 -16 6 -35 -14 -35 -8 0 -17 -10 -21 -22 -4 -14 -8 -18 -11 -11 -7 16 14
83 26 83 4 0 13 -7 20 -15z m12630 -45 c-18 -33 -25 -15 -9 22 9 23 15 28 17
16 2 -9 -2 -27 -8 -38z m110 40 c0 -5 -5 -10 -11 -10 -5 0 -7 5 -4 10 3 6 8
10 11 10 2 0 4 -4 4 -10z m-8780 -26 c0 -8 -4 -14 -10 -14 -5 0 -10 9 -10 21
0 11 5 17 10 14 6 -3 10 -13 10 -21z m1369 10 c2 -2 2 -7 -2 -10 -3 -3 -16 2
-29 11 l-23 17 25 -7 c14 -4 27 -9 29 -11z m-74 -4 c-3 -5 -13 -10 -21 -10 -8
0 -14 5 -14 10 0 6 9 10 21 10 11 0 17 -4 14 -10z m-815 -4 c0 -3 -4 -8 -10
-11 -5 -3 -10 -1 -10 4 0 6 5 11 10 11 6 0 10 -2 10 -4z m1630 -16 c0 -5 -2
-10 -4 -10 -3 0 -8 5 -11 10 -3 6 -1 10 4 10 6 0 11 -4 11 -10z m5795 2 c6 -4
16 -15 24 -24 12 -16 11 -17 -17 -7 -40 14 -63 39 -36 39 11 0 24 -4 29 -8z
m-7455 -15 c0 -16 -66 -54 -76 -45 -3 4 11 18 33 32 46 30 43 29 43 13z m7211
-5 c-7 -2 -18 1 -23 6 -8 8 -4 9 13 5 13 -4 18 -8 10 -11z m444 7 c11 -17 -1
-21 -15 -4 -8 9 -8 15 -2 15 6 0 14 -5 17 -11z m-6767 -20 c12 -5 22 -13 22
-19 0 -14 -4 -13 -50 11 -62 33 -49 36 28 8z m6222 15 c0 -1 -3 -9 -6 -18 -8
-22 -27 -20 -41 3 -11 18 -10 20 17 19 17 -1 30 -2 30 -4z m-7445 -39 c24 -13
45 -31 49 -40 9 -23 35 -18 48 10 8 19 19 25 42 25 l31 0 -34 -21 c-29 -17
-32 -24 -27 -50 4 -21 2 -29 -9 -29 -7 0 -17 5 -21 11 -3 6 -15 9 -25 6 -14
-4 -19 0 -19 16 0 12 -4 27 -8 33 -8 13 -66 44 -102 55 -25 7 -25 7 4 8 16 1
48 -10 71 -24z m935 15 c0 -5 -7 -10 -16 -10 -8 0 -12 5 -9 10 3 6 10 10 16
10 5 0 9 -4 9 -10z m-7720 -22 c0 -18 -2 -20 -9 -8 -6 8 -7 18 -5 22 9 14 14
9 14 -14z m10181 2 c31 -25 18 -25 -23 0 -20 12 -26 20 -17 20 9 0 27 -9 40
-20z m-2689 -4 c41 -5 27 -16 -20 -16 -28 0 -54 5 -57 10 -8 12 -48 13 -60 1
-6 -5 -32 -12 -60 -15 -36 -5 -46 -4 -35 3 8 6 25 11 37 11 12 0 25 5 29 11 6
10 71 8 166 -5z m7347 -35 c-1 -13 -2 -12 -6 2 -2 9 -9 17 -14 17 -5 0 -9 8
-9 18 1 15 2 15 15 -2 8 -11 14 -27 14 -35z m435 34 c-4 -8 -11 -15 -16 -15
-6 0 -5 6 2 15 7 8 14 15 16 15 2 0 1 -7 -2 -15z m-8294 -5 c0 -5 -4 -10 -10
-10 -5 0 -10 5 -10 10 0 6 5 10 10 10 6 0 10 -4 10 -10z m47 4 c-3 -3 -12 -4
-19 -1 -8 3 -5 6 6 6 11 1 17 -2 13 -5z m563 -10 c0 -2 -12 -4 -27 -4 -21 0
-24 3 -14 9 13 8 41 5 41 -5z m60 6 c0 -5 -12 -10 -27 -9 l-28 1 25 8 c14 4
26 8 28 9 1 1 2 -3 2 -9z m1403 -1 c12 -7 25 -16 28 -21 12 -19 54 -16 100 7
65 33 113 33 135 0 16 -25 16 -27 -4 -45 -26 -24 -36 -26 -28 -4 10 26 -11 53
-36 47 -38 -9 -48 -22 -41 -54 6 -31 -18 -69 -44 -69 -20 0 -15 21 7 27 20 5
29 33 10 33 -5 0 -10 -4 -10 -10 0 -5 -13 -10 -30 -10 -23 0 -30 4 -30 20 0
12 -16 30 -42 46 -39 25 -44 26 -95 14 -30 -6 -57 -9 -60 -6 -4 3 3 6 14 6 11
0 26 7 33 15 15 18 63 20 93 4z m5291 -14 c-27 -20 -51 -20 -34 0 7 8 22 15
33 15 20 0 20 0 1 -15z m1135 -59 c-9 -8 -10 -5 -5 14 3 14 6 32 7 40 1 8 4 2
6 -14 3 -16 -1 -34 -8 -40z m-8269 39 c-14 -8 -29 -14 -35 -14 -5 0 1 6 15 14
14 8 30 14 35 14 6 0 -1 -6 -15 -14z m600 -5 c0 -21 -15 -27 -25 -10 -7 12 2
30 16 30 5 0 9 -9 9 -20z m-650 -19 c0 -5 -7 -11 -15 -15 -15 -5 -20 5 -8 17
9 10 23 9 23 -2z m7700 -1 c0 -5 -4 -10 -10 -10 -5 0 -10 5 -10 10 0 6 5 10
10 10 6 0 10 -4 10 -10z m-14844 -27 c-10 -10 -19 5 -10 18 6 11 8 11 12 0 2
-7 1 -15 -2 -18z m8683 11 c10 -10 -8 -13 -43 -7 -26 4 -33 9 -24 15 12 7 57
2 67 -8z m6356 -15 c-20 -18 -38 -29 -41 -27 -6 7 54 58 67 58 5 0 -6 -14 -26
-31z m100 21 c3 -5 -1 -10 -9 -10 -8 0 -18 5 -21 10 -3 6 1 10 9 10 8 0 18 -4
21 -10z m-8035 -19 c0 -11 -31 -24 -39 -16 -3 3 1 10 9 15 19 12 30 12 30 1z
m-4487 -16 c-3 -9 -8 -14 -10 -11 -3 3 -2 9 2 15 9 16 15 13 8 -4z m4179 -7
c-7 -7 -12 -8 -12 -2 0 14 12 26 19 19 2 -3 -1 -11 -7 -17z m2489 -61 c-6 -16
-15 -26 -21 -22 -6 4 -6 15 0 31 6 14 10 37 11 52 l1 27 10 -30 c6 -20 6 -39
-1 -58z m4956 36 c-4 -17 -4 -17 -12 0 -4 9 -4 25 0 35 8 16 8 16 12 0 3 -10
3 -26 0 -35z m-7304 30 c-7 -2 -19 -2 -25 0 -7 3 -2 5 12 5 14 0 19 -2 13 -5z
m102 -14 c-8 -12 -65 -12 -65 0 0 10 49 20 63 13 4 -2 5 -8 2 -13z m-7025 -8
c0 -14 16 -27 55 -45 33 -15 55 -31 55 -41 0 -9 7 -27 16 -40 12 -18 14 -36
10 -62 -4 -21 -9 -51 -11 -68 -5 -42 -5 -42 -15 -20 -4 11 -6 47 -3 81 7 76
-3 94 -72 139 -37 23 -55 41 -55 55 0 11 5 20 10 20 6 0 10 -9 10 -19z m14789
15 c-2 -2 -20 -11 -39 -20 l-35 -17 25 20 c14 11 31 21 39 21 8 0 12 -2 10 -4z
m-6186 -13 c-7 -2 -19 -2 -25 0 -7 3 -2 5 12 5 14 0 19 -2 13 -5z m6702 -3
c17 -7 17 -9 3 -9 -10 -1 -23 -10 -30 -21 -17 -27 -28 -25 -28 4 0 32 19 41
55 26z m-8551 -24 c-4 -9 -18 -23 -33 -32 -14 -8 -39 -23 -56 -34 -16 -11 -39
-25 -50 -31 -18 -11 -19 -11 -6 4 7 9 38 31 67 48 30 17 59 40 65 51 12 23 22
19 13 -6z m1026 -1 c0 -14 -4 -25 -10 -25 -11 0 -14 33 -3 43 11 11 13 8 13
-18z m890 15 c0 -5 -7 -7 -15 -4 -8 4 -15 8 -15 10 0 2 7 4 15 4 8 0 15 -4 15
-10z m6284 -5 c-13 -33 56 -35 118 -4 18 9 48 12 48 5 0 -2 3 -11 6 -19 8 -21
-54 -51 -72 -36 -8 7 -28 9 -48 5 -28 -5 -34 -10 -29 -24 6 -14 4 -15 -9 -4
-17 13 -32 68 -22 83 9 14 14 10 8 -6z m229 -9 c9 -7 17 -21 17 -30 0 -14 -4
-15 -20 -6 -11 6 -20 17 -20 25 0 7 -8 16 -17 18 -15 4 -15 5 2 6 11 0 28 -6
38 -13z m-893 -27 c0 -6 -4 -7 -10 -4 -5 3 -10 11 -10 16 0 6 5 7 10 4 6 -3
10 -11 10 -16z m-11840 -17 c0 -4 -9 -13 -20 -20 -22 -13 -27 -3 -8 16 14 14
28 16 28 4z m6810 -52 c-23 -15 -28 -12 -22 16 4 24 6 24 21 9 14 -14 14 -17
1 -25z m5075 -10 c5 -21 18 -36 46 -52 21 -12 39 -26 39 -31 0 -5 -6 -6 -12
-3 -7 3 -20 9 -29 12 -18 6 -69 81 -69 102 0 23 18 3 25 -28z m736 14 c12 -14
11 -16 -5 -13 -11 2 -21 10 -24 17 -5 17 13 15 29 -4z m69 12 c0 -3 -4 -8 -10
-11 -5 -3 -10 -1 -10 4 0 6 5 11 10 11 6 0 10 -2 10 -4z m-116 -12 c22 -8 22
-96 1 -114 -17 -15 -19 -7 -5 21 8 14 6 29 -9 59 -19 40 -17 45 13 34z m-7099
-22 c-3 -3 -11 0 -18 7 -9 10 -8 11 6 5 10 -3 15 -9 12 -12z m7015 -18 c0 -3
-7 -1 -15 6 -8 7 -15 17 -15 22 0 5 7 3 15 -6 8 -8 15 -18 15 -22z m-6583 -16
c-3 -8 -6 -5 -6 6 -1 11 2 17 5 13 3 -3 4 -12 1 -19z m879 -21 c-8 -41 -48
-82 -71 -73 -9 3 -25 2 -35 -4 -13 -7 -32 -4 -69 12 -44 18 -55 19 -75 9 -13
-7 -32 -11 -42 -9 -38 9 38 30 86 24 81 -10 140 -9 156 5 8 7 22 28 30 47 17
42 29 36 20 -11z m5744 -21 c0 -20 0 -20 -15 0 -8 10 -14 28 -14 39 0 20 0 20
14 1 8 -11 15 -29 15 -40z m-12697 29 c-3 -9 -8 -14 -10 -11 -3 3 -2 9 2 15 9
16 15 13 8 -4z m6377 -37 c0 -14 -17 -9 -41 12 l-24 19 33 -12 c17 -6 32 -15
32 -19z m-8374 3 c25 -15 33 -28 38 -63 3 -23 8 -52 9 -63 5 -32 39 -115 47
-115 4 0 10 -8 14 -17 3 -10 15 -31 26 -48 28 -43 33 -55 26 -63 -9 -8 -24 15
-33 48 -3 14 -15 31 -25 38 -10 7 -18 19 -18 26 0 7 -9 24 -19 38 -11 13 -26
57 -35 98 -17 83 -44 117 -77 97 -34 -21 -29 -67 17 -150 9 -16 14 -31 11 -34
-12 -12 -28 11 -43 65 -9 31 -21 63 -26 69 -18 22 21 91 52 93 3 0 19 -9 36
-19z m8063 -47 c-8 -10 -15 -12 -22 -5 -7 7 -4 17 9 32 16 18 19 19 22 5 2 -9
-2 -24 -9 -32z m416 36 c22 -5 63 -12 90 -15 56 -8 60 -9 50 -24 -4 -8 -12 -8
-25 -1 -10 5 -34 10 -54 10 -19 0 -38 5 -41 10 -3 6 -22 10 -41 10 -19 0 -34
5 -34 10 0 12 4 12 55 0z m-6533 -40 c-9 -16 -18 -25 -20 -20 -4 12 17 50 28
50 5 0 1 -13 -8 -30z m5938 10 c11 -8 7 -9 -15 -4 -37 8 -45 14 -19 14 10 0
26 -5 34 -10z m65 -20 c3 -5 1 -10 -4 -10 -6 0 -11 5 -11 10 0 6 2 10 4 10 3
0 8 -4 11 -10z m6219 -53 c-19 -11 -55 10 -48 28 9 22 38 23 51 0 9 -16 9 -22
-3 -28z m-12684 33 c0 -5 -5 -10 -11 -10 -5 0 -7 5 -4 10 3 6 8 10 11 10 2 0
4 -4 4 -10z m4777 -24 c-10 -26 -25 -18 -19 10 3 17 8 22 15 15 5 -5 7 -17 4
-25z m1754 14 c-8 -4 -21 -5 -30 -2 -12 5 -10 8 9 12 29 8 40 3 21 -10z m1835
-2 c10 -12 13 -18 6 -14 -25 15 -51 -5 -62 -46 -10 -35 -9 -43 8 -62 10 -11
22 -30 26 -41 6 -19 -7 -6 -54 52 -13 16 -13 60 0 68 6 3 10 14 10 24 0 10 10
23 23 29 12 6 22 11 23 11 0 1 9 -9 20 -21z m-9948 -131 c-12 -21 -13 -20 -18
18 -3 22 -11 50 -18 62 -7 12 -12 30 -12 40 1 10 14 -8 30 -40 25 -50 28 -62
18 -80z m1346 124 c3 -4 -13 -8 -35 -8 -26 0 -36 3 -27 8 17 11 55 11 62 0z
m549 -31 c33 -34 53 -91 27 -75 -5 3 -7 11 -4 18 5 13 -37 62 -72 84 -15 10
-16 12 -3 12 9 1 32 -17 52 -39z m134 -2 c-3 -8 -6 -5 -6 6 -1 11 2 17 5 13 3
-3 4 -12 1 -19z m7999 -27 c19 -45 2 -38 -25 10 -20 35 -21 40 -6 32 10 -6 24
-24 31 -42z m-1079 17 c33 -36 46 -70 49 -118 2 -34 13 -61 47 -113 25 -38 55
-94 68 -125 12 -31 40 -83 62 -115 21 -32 36 -62 32 -65 -4 -4 -13 2 -20 13
-8 11 -21 27 -29 35 -14 15 -55 98 -76 158 -7 17 -16 32 -20 32 -5 0 -14 17
-20 38 -7 20 -25 54 -41 74 -16 20 -29 44 -29 52 0 8 -4 17 -9 21 -12 7 -71
93 -71 104 0 9 22 31 30 31 4 0 16 -10 27 -22z m-2617 8 c0 -2 -7 -7 -16 -10
-8 -3 -12 -2 -9 4 6 10 25 14 25 6z m-5135 -25 c-3 -6 -11 -11 -17 -11 -6 0
-6 6 2 15 14 17 26 13 15 -4z m272 13 c-3 -3 -12 -4 -19 -1 -8 3 -5 6 6 6 11
1 17 -2 13 -5z m12837 -78 c-10 -42 -22 -76 -27 -76 -4 0 -6 8 -3 18 3 9 8 35
11 57 7 41 25 88 32 81 3 -2 -4 -38 -13 -80z m-12270 58 c3 -8 2 -12 -4 -9 -6
3 -10 10 -10 16 0 14 7 11 14 -7z m7052 -42 c8 -55 36 -117 70 -152 59 -63 93
-108 107 -143 9 -20 23 -40 32 -43 19 -8 54 -74 48 -92 -7 -17 -23 -5 -23 18
0 10 -12 33 -27 51 -16 18 -41 51 -58 74 -16 24 -50 69 -75 101 -24 33 -56 82
-71 109 -14 28 -32 50 -40 50 -18 0 -25 65 -8 76 23 14 38 -3 45 -49z m-7961
8 c-3 -5 -11 -10 -16 -10 -6 0 -7 5 -4 10 3 6 11 10 16 10 6 0 7 -4 4 -10z
m-1014 -70 c4 -3 13 -37 19 -75 6 -39 18 -92 27 -118 8 -27 12 -51 9 -54 -3
-4 -6 0 -6 8 0 8 -9 25 -20 39 -12 16 -17 34 -13 51 3 15 0 30 -6 33 -6 4 -11
24 -11 44 0 21 -9 54 -20 75 -24 45 -26 60 -3 27 9 -14 20 -27 24 -30z m9953
34 c10 -25 -1 -29 -14 -5 -6 12 -7 21 -1 21 5 0 12 -7 15 -16z m-9030 -19
c-19 -29 -29 -27 -19 4 3 12 13 21 21 21 12 0 12 -4 -2 -25z m-1045 -38 c1 -5
-3 -5 -9 -2 -5 3 -10 16 -9 28 0 21 1 21 9 2 5 -11 9 -24 9 -28z m2060 -17 c1
-13 0 -13 -9 0 -5 8 -9 26 -9 40 l1 25 8 -25 c4 -14 8 -32 9 -40z m4111 50 c0
-5 -5 -10 -11 -10 -5 0 -7 5 -4 10 3 6 8 10 11 10 2 0 4 -4 4 -10z m3989 -29
c15 -11 39 -23 54 -26 28 -7 47 -25 27 -25 -16 0 -119 50 -125 61 -10 16 16
10 44 -10z m-8219 -25 c0 -8 3 -22 7 -32 4 -11 3 -15 -4 -11 -13 8 -23 57 -12
57 5 0 9 -6 9 -14z m4195 4 c-3 -5 -11 -10 -16 -10 -6 0 -7 5 -4 10 3 6 11 10
16 10 6 0 7 -4 4 -10z m3891 -68 c-2 -4 8 -8 22 -7 22 0 26 -4 24 -20 -5 -28
-21 -45 -43 -45 -21 0 -39 30 -49 80 -4 19 -11 44 -15 55 -5 13 5 6 29 -18 20
-20 35 -41 32 -45z m401 46 c17 -18 35 -43 41 -54 16 -30 85 -46 205 -46 31 0
57 -2 57 -4 0 -2 -16 -7 -35 -13 -54 -15 -189 12 -234 46 -20 15 -38 31 -40
36 -1 4 -10 0 -18 -10 -11 -13 -13 -14 -10 -3 3 9 -2 25 -9 35 -11 15 -18 17
-32 9 -9 -6 -23 -9 -31 -6 -10 3 -3 11 20 22 47 25 51 24 86 -12z m-10351 -19
c25 -26 26 -31 14 -56 l-13 -28 -7 31 c-4 18 -19 44 -34 58 -14 15 -26 29 -26
31 0 11 42 -11 66 -36z m14195 0 c-9 -22 -10 -22 -10 -3 -1 11 2 24 6 27 12
12 14 0 4 -24z m-12211 6 c0 -8 -4 -15 -10 -15 -5 0 -7 7 -4 15 4 8 8 15 10
15 2 0 4 -7 4 -15z m8233 -2 c-7 -2 -19 -2 -25 0 -7 3 -2 5 12 5 14 0 19 -2
13 -5z m-4211 -25 c-7 -7 -12 -8 -12 -2 0 14 12 26 19 19 2 -3 -1 -11 -7 -17z
m-5095 -30 c-3 -8 -6 -5 -6 6 -1 11 2 17 5 13 3 -3 4 -12 1 -19z m13261 -34
c-15 -35 -88 -123 -88 -106 0 6 15 27 34 46 19 19 40 53 47 78 7 23 14 36 16
27 2 -8 -2 -29 -9 -45z m-8222 -43 c-20 -39 -41 -71 -47 -71 -5 0 6 30 26 66
45 85 46 86 52 81 2 -3 -12 -37 -31 -76z m4324 71 c0 -10 -22 -32 -32 -32 -5
0 -3 9 4 20 13 20 28 27 28 12z m58 -26 c-3 -24 10 -42 55 -71 40 -26 26 -30
-21 -6 -39 20 -52 42 -52 89 0 14 4 21 11 17 5 -4 9 -17 7 -29z m-10108 -1
c13 -14 20 -25 15 -25 -4 0 -18 11 -31 25 -13 14 -20 25 -15 25 4 0 18 -11 31
-25z m9830 -11 c0 -7 14 -22 31 -34 30 -22 59 -23 104 -5 17 8 18 7 7 -7 -22
-28 -70 -30 -122 -6 -44 20 -48 25 -47 54 2 24 5 30 15 22 6 -6 12 -16 12 -24z
m875 25 c4 -5 17 -14 30 -19 13 -5 29 -22 37 -37 7 -15 28 -35 46 -44 18 -9
42 -29 53 -43 17 -21 28 -26 57 -24 27 2 37 -1 40 -14 2 -9 -6 -21 -16 -27
-16 -9 -26 -4 -57 24 -20 19 -56 47 -81 61 -24 14 -47 36 -50 47 -13 51 -77
71 -146 47 -26 -10 -44 -9 -88 3 l-55 16 66 -6 c52 -4 72 -2 90 11 27 18 65
21 74 5z m-10031 -23 c-3 -9 -10 -16 -15 -16 -6 0 -5 9 1 21 13 24 24 20 14
-5z m13385 -33 c-23 -39 -61 -85 -44 -53 22 40 56 90 61 90 3 0 -4 -17 -17
-37z m71 -18 c0 -17 -2 -17 -10 -5 -5 8 -10 24 -10 35 0 17 2 17 10 5 5 -8 10
-24 10 -35z m-14319 13 c11 -11 19 -27 19 -34 0 -7 8 -17 17 -23 10 -5 14 -13
10 -17 -7 -8 -57 38 -57 52 0 4 -7 16 -17 26 -11 13 -12 18 -3 18 7 0 21 -10
31 -22z m266 -39 c16 -41 -5 -34 -22 8 -10 24 -11 31 -1 27 6 -2 17 -18 23
-35z m14043 -54 c-7 -25 -17 -48 -22 -52 -6 -3 -8 2 -5 13 4 11 9 33 13 49 8
37 14 48 21 41 3 -3 0 -26 -7 -51z m-12620 -21 c-58 -27 -60 -27 -60 -15 0 11
92 50 103 44 5 -3 -15 -16 -43 -29z m4149 -1 c-30 -50 -39 -60 -39 -42 0 14
47 79 57 79 3 0 -5 -17 -18 -37z m-3986 20 c-7 -2 -19 -2 -25 0 -7 3 -2 5 12
5 14 0 19 -2 13 -5z m8612 -4 c11 -17 0 -20 -21 -4 -17 13 -17 14 -2 15 9 0
20 -5 23 -11z m-10145 -39 c11 -41 4 -136 -11 -146 -12 -7 -11 37 2 74 8 24 7
37 -5 61 -18 34 -20 51 -6 51 5 0 14 -18 20 -40z m1587 34 c-3 -3 -12 -4 -19
-1 -8 3 -5 6 6 6 11 1 17 -2 13 -5z m12078 -13 c-27 -17 -118 -41 -105 -28 6
7 111 45 125 46 6 0 -3 -8 -20 -18z m248 -1 c3 -11 1 -18 -4 -14 -5 3 -9 12
-9 20 0 20 7 17 13 -6z m-13414 -45 c1 -17 -1 -17 -9 -5 -5 8 -9 26 -9 40 0
23 1 23 9 5 5 -11 9 -29 9 -40z m1141 45 c0 -5 -4 -10 -10 -10 -5 0 -10 5 -10
10 0 6 5 10 10 10 6 0 10 -4 10 -10z m-200 -19 c0 -4 -20 -14 -45 -21 -25 -7
-48 -17 -51 -21 -8 -14 -24 -10 -24 6 0 9 9 15 23 15 12 0 31 7 41 15 22 16
56 20 56 6z m245 -9 c-3 -3 -11 0 -18 7 -9 10 -8 11 6 5 10 -3 15 -9 12 -12z
m10456 8 c16 -9 49 -68 49 -88 0 -3 -16 13 -36 37 -27 30 -41 40 -55 36 -21
-7 -27 10 -6 18 19 8 27 8 48 -3z m-10361 -67 c0 -13 -29 3 -44 24 l-19 26 31
-23 c18 -13 32 -25 32 -27z m9210 36 c0 -6 -7 -17 -16 -26 -18 -19 -40 -4 -31
21 7 18 47 22 47 5z m1065 1 c-27 -12 -35 -12 -35 0 0 6 12 10 28 9 24 0 25
-1 7 -9z m1395 0 c0 -5 -4 -10 -10 -10 -5 0 -10 5 -10 10 0 6 5 10 10 10 6 0
10 -4 10 -10z m-11862 -12 c19 -19 14 -30 -8 -18 -11 6 -20 15 -20 20 0 14 14
12 28 -2z m10387 2 c-3 -5 -14 -10 -23 -10 -27 0 -62 -29 -62 -51 0 -20 -15
-26 -25 -9 -9 15 25 60 46 60 10 0 21 5 24 10 3 6 15 10 26 10 11 0 17 -4 14
-10z m-6495 -20 c0 -11 -4 -20 -9 -20 -5 0 -7 9 -4 20 3 11 7 20 9 20 2 0 4
-9 4 -20z m3469 -25 c0 -5 -6 -1 -14 9 -8 11 -15 24 -15 30 0 5 7 1 15 -10 8
-10 14 -23 14 -29z m4261 26 c0 -10 -50 -25 -58 -17 -3 3 6 10 19 15 31 13 39
13 39 2z m172 -13 c-7 -7 -12 -8 -12 -2 0 14 12 26 19 19 2 -3 -1 -11 -7 -17z
m-12272 2 c0 -5 -2 -10 -4 -10 -3 0 -8 5 -11 10 -3 6 -1 10 4 10 6 0 11 -4 11
-10z m9029 -37 c-24 -27 -46 -44 -48 -39 -4 9 69 85 83 86 5 0 -11 -21 -35
-47z m-9136 30 c-7 -2 -19 -2 -25 0 -7 3 -2 5 12 5 14 0 19 -2 13 -5z m12277
-26 c0 -18 -2 -19 -10 -7 -13 20 -13 43 0 35 6 -3 10 -16 10 -28z m-150 15 c0
-10 -22 -32 -32 -32 -5 0 -3 9 4 20 13 20 28 27 28 12z m-11446 -33 c-4 -6
-11 -6 -20 2 -21 17 -17 31 6 19 11 -6 18 -15 14 -21z m-1167 -1 c-3 -8 -6 -5
-6 6 -1 11 2 17 5 13 3 -3 4 -12 1 -19z m1378 11 c11 -17 2 -18 -25 -4 -24 14
-24 14 -3 15 12 0 25 -5 28 -11z m6933 -98 c15 -29 33 -56 40 -58 16 -7 46
-63 33 -63 -6 0 -18 14 -28 30 -9 17 -21 30 -26 30 -14 0 -57 104 -56 135 2
27 2 27 6 5 2 -14 16 -49 31 -79z m162 45 c0 -16 -18 -3 -28 19 -17 37 -15 41
8 12 11 -14 20 -28 20 -31z m-3476 -58 c-7 -32 -7 -32 -14 -8 -4 14 -10 43
-13 65 l-6 40 20 -32 c16 -25 19 -40 13 -65z m-4974 39 c0 -5 -4 -5 -10 -2 -5
3 -10 14 -10 23 0 15 2 15 10 2 5 -8 10 -19 10 -23z m551 -28 c-12 -19 -21
-42 -21 -51 0 -10 -4 -18 -10 -18 -5 0 -10 5 -10 10 0 19 55 118 58 105 2 -7
-6 -28 -17 -46z m789 46 c-14 -8 -36 -14 -50 -13 -20 0 -21 1 -5 5 11 3 24 9
30 14 5 5 18 9 30 9 18 -1 18 -2 -5 -15z m9975 -5 c-3 -5 -12 -10 -18 -10 -7
0 -6 4 3 10 19 12 23 12 15 0z m455 -21 c0 -18 -2 -19 -15 -5 -8 8 -15 17 -15
20 0 3 7 6 15 6 9 0 15 -9 15 -21z m768 -66 c19 -35 14 -37 -13 -5 -26 31 -30
48 -18 79 6 14 9 10 13 -17 4 -19 12 -45 18 -57z m232 79 c0 -4 -15 -13 -32
-19 l-33 -12 24 19 c24 21 41 26 41 12z m-13258 -51 c14 -16 43 -38 66 -50 37
-19 62 -41 47 -41 -33 0 -175 108 -175 132 0 14 36 -10 62 -41z m838 24 c-7
-8 -17 -15 -22 -15 -6 0 -5 7 2 15 7 8 17 15 22 15 6 0 5 -7 -2 -15z m8168
-25 c25 -34 27 -40 10 -40 -14 1 -53 70 -40 70 5 0 18 -13 30 -30z m-8468 -5
c13 -14 44 -32 70 -40 37 -11 40 -14 17 -14 -41 -1 -127 46 -127 71 0 15 16 8
40 -17z m1410 -5 c0 -5 -8 -10 -17 -10 -15 0 -16 2 -3 10 19 12 20 12 20 0z
m-99 -23 c-6 -8 -8 -17 -4 -20 3 -4 -1 -7 -10 -7 -19 0 -20 2 -11 24 3 9 13
16 21 16 12 0 13 -3 4 -13z m8139 9 c0 -2 -8 -10 -17 -17 -16 -13 -17 -12 -4
4 13 16 21 21 21 13z m-9270 -16 c0 -5 -15 -9 -32 -9 l-33 1 30 8 c17 4 31 8
33 9 1 0 2 -3 2 -9z m4760 -30 c0 -57 -66 -197 -84 -179 -3 3 3 15 14 27 11
12 20 30 20 40 0 11 7 36 16 57 8 21 16 50 16 66 1 37 18 27 18 -11z m5545
-103 c9 -14 15 -32 13 -38 -2 -7 -21 23 -41 65 -21 42 -35 81 -31 87 4 6 14
-11 24 -38 9 -27 25 -61 35 -76z m630 98 c-35 -29 -66 -35 -44 -9 13 16 44 32
64 33 6 1 -3 -10 -20 -24z m-10050 5 c3 -5 2 -10 -4 -10 -5 0 -13 5 -16 10 -3
6 -2 10 4 10 5 0 13 -4 16 -10z m7446 -12 c11 -21 11 -22 -4 -9 -10 7 -17 17
-17 22 0 15 9 10 21 -13z m899 7 c-7 -8 -17 -15 -22 -15 -6 0 -5 7 2 15 7 8
17 15 22 15 6 0 5 -7 -2 -15z m-8973 -37 c-3 -7 -5 -2 -5 12 0 14 2 19 5 13 2
-7 2 -19 0 -25z m-752 -19 c43 -27 17 -23 -41 6 -38 20 -42 24 -19 20 17 -4
44 -15 60 -26z m9675 21 c0 -5 -10 -15 -22 -21 -23 -12 -23 -12 -4 10 21 23
26 26 26 11z m3220 -22 c0 -13 -23 -5 -28 10 -2 7 2 10 12 6 9 -3 16 -11 16
-16z m-1510 8 c0 -3 -4 -8 -10 -11 -5 -3 -10 -1 -10 4 0 6 5 11 10 11 6 0 10
-2 10 -4z m-10640 -16 c0 -5 -5 -10 -11 -10 -5 0 -7 5 -4 10 3 6 8 10 11 10 2
0 4 -4 4 -10z m7930 -21 c0 -27 26 -75 45 -82 8 -4 15 -11 15 -16 0 -16 -34
-1 -52 24 -21 28 -37 112 -20 101 7 -4 12 -16 12 -27z m216 10 c4 -7 8 -28 10
-48 5 -76 22 -148 43 -181 25 -42 28 -77 3 -41 -30 43 -60 153 -66 239 0 12
-4 22 -8 22 -5 0 -8 5 -8 10 0 14 17 13 26 -1z m699 -3 c-53 -15 -102 -42
-114 -63 -6 -10 -11 -13 -11 -7 -1 34 77 83 130 83 l35 -1 -40 -12z m4122 -8
c-3 -8 -6 -5 -6 6 -1 11 2 17 5 13 3 -3 4 -12 1 -19z m-13631 -9 c3 -5 1 -9
-5 -9 -17 0 -41 12 -41 20 0 10 38 1 46 -11z m12195 11 c31 -17 22 -28 -15
-16 -19 6 -32 14 -30 18 7 11 22 10 45 -2z m-931 -3 c0 -2 -15 -13 -32 -26
l-33 -22 28 25 c26 24 37 31 37 23z m-10985 -27 c4 -6 -7 -10 -25 -10 -18 0
-29 4 -25 10 3 6 15 10 25 10 10 0 22 -4 25 -10z m365 -4 c0 -8 6 -16 13 -19
6 -2 9 -8 5 -12 -12 -13 -38 4 -38 25 0 11 5 20 10 20 6 0 10 -6 10 -14z
m-560 -11 c32 -16 38 -25 18 -25 -14 0 -68 39 -55 40 4 0 21 -7 37 -15z m796
-10 c25 -19 6 -19 -37 0 -32 13 -32 14 -8 15 14 0 34 -7 45 -15z m-546 -5 c0
-5 -7 -7 -15 -4 -8 4 -15 8 -15 10 0 2 7 4 15 4 8 0 15 -4 15 -10z m430 0 c0
-5 -5 -10 -11 -10 -5 0 -7 5 -4 10 3 6 8 10 11 10 2 0 4 -4 4 -10z m-610 -4
c0 -3 -4 -8 -10 -11 -5 -3 -10 -1 -10 4 0 6 5 11 10 11 6 0 10 -2 10 -4z
m11025 -6 c-3 -5 -12 -10 -18 -10 -7 0 -6 4 3 10 19 12 23 12 15 0z m-380
-115 c17 -38 25 -75 17 -75 -4 0 -20 37 -37 83 -49 133 -42 131 20 -8z m2119
89 c10 -25 -1 -29 -14 -5 -6 12 -7 21 -1 21 5 0 12 -7 15 -16z m-3569 -13 c-3
-6 -11 -11 -17 -11 -6 0 -6 6 2 15 14 17 26 13 15 -4z m1792 -28 c-4 -17 -4
-17 -12 0 -4 9 -4 25 0 35 8 16 8 16 12 0 3 -10 3 -26 0 -35z m2595 23 c4 -17
1 -23 -9 -19 -14 5 -17 25 -6 36 9 10 10 9 15 -17z m-13354 -11 c-3 -3 -9 2
-12 12 -6 14 -5 15 5 6 7 -7 10 -15 7 -18z m8359 -45 c6 0 30 -22 53 -50 29
-35 37 -50 26 -50 -9 0 -27 18 -41 40 -13 21 -35 44 -47 51 -22 11 -68 57 -68
68 0 2 15 -9 33 -27 18 -18 38 -32 44 -32z m-7802 20 c-4 -12 -9 -19 -12 -17
-3 3 -2 15 2 27 4 12 9 19 12 17 3 -3 2 -15 -2 -27z m4171 -18 c-9 -8 -26 10
-26 26 1 15 2 15 15 -2 8 -11 13 -21 11 -24z m4138 19 c3 -5 -1 -11 -9 -14 -9
-4 -12 -1 -8 9 6 16 10 17 17 5z m1916 -49 c0 -21 -2 -24 -10 -12 -13 20 -13
53 0 45 6 -3 10 -18 10 -33z m2545 0 c11 -17 26 -31 33 -32 7 0 12 -14 12 -35
l0 -34 -30 17 c-25 13 -30 22 -26 42 2 15 -4 36 -17 54 -14 19 -16 27 -6 24 8
-2 23 -19 34 -36z m95 24 c44 -14 45 -14 17 -21 -23 -6 -34 -3 -50 14 -25 25
-25 25 33 7z m-13350 -6 c0 -5 -4 -10 -10 -10 -5 0 -10 5 -10 10 0 6 5 10 10
10 6 0 10 -4 10 -10z m8717 -11 c-21 -11 -44 -18 -50 -16 -7 2 4 11 23 20 51
23 72 20 27 -4z m3093 11 c0 -5 -2 -10 -4 -10 -3 0 -8 5 -11 10 -3 6 -1 10 4
10 6 0 11 -4 11 -10z m-11715 -38 c17 -8 24 -17 18 -19 -7 -3 -23 3 -35 11
-12 9 -30 16 -40 16 -9 0 -20 5 -23 10 -8 14 39 3 80 -18z m142 -52 c16 -47 8
-51 -13 -6 -10 20 -24 36 -31 36 -16 0 -17 12 -1 28 14 14 24 0 45 -58z m4447
53 c4 -9 3 -20 -1 -24 -13 -13 -34 6 -27 24 8 22 20 22 28 0z m3942 -18 c-11
-8 -29 -15 -40 -14 -17 0 -15 3 9 14 39 18 55 18 31 0z m3334 6 c0 -5 -7 -12
-16 -15 -13 -5 -15 -15 -11 -49 l6 -42 -16 31 c-20 40 -11 84 17 84 11 0 20
-4 20 -9z m559 -34 c1 -5 -3 -5 -9 -2 -5 3 -10 16 -9 28 0 21 1 21 9 2 5 -11
9 -24 9 -28z m-684 23 c3 -5 1 -10 -4 -10 -6 0 -11 5 -11 10 0 6 2 10 4 10 3
0 8 -4 11 -10z m170 -20 c10 -11 14 -20 9 -20 -5 0 -15 9 -22 20 -7 11 -11 20
-9 20 2 0 12 -9 22 -20z m1398 13 c-7 -2 -21 -2 -30 0 -10 3 -4 5 12 5 17 0
24 -2 18 -5z m-4883 -28 c-14 -8 -36 -14 -50 -14 l-25 0 25 14 c14 8 36 14 50
14 l25 0 -25 -14z m4720 -16 c0 -11 -4 -17 -10 -14 -5 3 -10 15 -10 26 0 11 5
17 10 14 6 -3 10 -15 10 -26z m-11897 1 c-3 -11 -7 -20 -9 -20 -2 0 -4 9 -4
20 0 11 4 20 9 20 5 0 7 -9 4 -20z m9076 -64 c23 -46 41 -92 40 -102 0 -14 -2
-15 -6 -4 -3 8 -23 52 -44 97 -22 46 -39 85 -39 88 0 17 13 -4 49 -79z m1451
63 c0 -5 -4 -9 -10 -9 -5 0 -10 7 -10 16 0 8 5 12 10 9 6 -3 10 -10 10 -16z
m-3465 -37 c-14 -37 58 -102 114 -102 12 0 21 -4 21 -10 0 -17 -43 -11 -87 12
-44 24 -58 46 -68 113 -6 38 -5 39 10 20 8 -11 13 -25 10 -33z m-3708 17 c-4
-13 0 -22 11 -26 22 -8 52 -34 52 -44 0 -5 -8 -2 -17 6 -10 8 -22 16 -27 18
-14 3 -66 50 -66 59 0 5 12 8 26 8 22 0 25 -4 21 -21z m7388 1 c3 -5 2 -10 -4
-10 -5 0 -13 5 -16 10 -3 6 -2 10 4 10 5 0 13 -4 16 -10z m-1408 -37 c-3 -10
-5 -4 -5 12 0 17 2 24 5 18 2 -7 2 -21 0 -30z m2858 27 c3 -5 2 -10 -4 -10 -5
0 -13 5 -16 10 -3 6 -2 10 4 10 5 0 13 -4 16 -10z m-13252 -21 c26 -30 15 -34
-13 -4 -13 14 -19 25 -14 25 5 0 18 -9 27 -21z m11578 -42 c-13 -13 -15 11 -4
40 7 16 8 15 11 -6 2 -13 -1 -28 -7 -34z m-3041 13 c-29 -23 -41 -25 -34 -7 5
13 46 36 54 29 3 -2 -6 -12 -20 -22z m4560 20 c0 -5 -4 -10 -9 -10 -6 0 -13 5
-16 10 -3 6 1 10 9 10 9 0 16 -4 16 -10z m139 -33 c10 -16 10 -21 0 -28 -10
-6 -10 -10 0 -23 8 -9 10 -16 5 -16 -14 0 -39 18 -40 30 -1 5 -2 11 -3 13 -1
1 -4 16 -5 34 -3 28 -1 30 14 21 9 -6 23 -20 29 -31z m-13072 -9 c-3 -7 -5 -2
-5 12 0 14 2 19 5 13 2 -7 2 -19 0 -25z m8440 0 c-3 -7 -5 -2 -5 12 0 14 2 19
5 13 2 -7 2 -19 0 -25z m-7687 -7 c0 -17 -4 -33 -10 -36 -6 -4 -10 8 -10 29 0
20 5 36 10 36 6 0 10 -13 10 -29z m256 -18 c-8 -8 -36 5 -36 17 0 7 6 7 21 0
11 -7 18 -14 15 -17z m7277 20 c-7 -2 -19 -2 -25 0 -7 3 -2 5 12 5 14 0 19 -2
13 -5z m-136 -29 c-3 -3 -12 -4 -19 -1 -8 3 -5 6 6 6 11 1 17 -2 13 -5z m3677
-16 c8 -31 7 -38 -3 -38 -5 0 -11 8 -15 18 -3 9 -9 23 -12 30 -3 6 1 12 9 12
8 0 17 -10 21 -22z m137 -3 c-24 -14 -45 -24 -47 -22 -11 10 46 45 76 46 8 1
-5 -11 -29 -24z m-10606 -6 c-6 -19 -4 -21 21 -17 25 3 29 0 29 -19 0 -28 -28
-31 -79 -6 -43 20 -55 42 -20 35 16 -3 26 1 30 12 9 24 26 19 19 -5z m10108 1
c-3 -11 -7 -20 -9 -20 -2 0 -4 9 -4 20 0 11 4 20 9 20 5 0 7 -9 4 -20z m1227
16 c0 -3 -4 -8 -10 -11 -5 -3 -10 -1 -10 4 0 6 5 11 10 11 6 0 10 -2 10 -4z
m330 -4 c0 -13 -12 -22 -22 -16 -10 6 -1 24 13 24 5 0 9 -4 9 -8z m-12228 -44
c-9 -9 -12 -7 -12 12 0 19 3 21 12 12 9 -9 9 -15 0 -24z m401 25 c-7 -2 -21
-2 -30 0 -10 3 -4 5 12 5 17 0 24 -2 18 -5z m-427 -43 c21 0 17 -18 -7 -25
-26 -8 -27 -7 -35 36 -6 34 -6 34 10 12 10 -13 24 -23 32 -23z m10631 8 c-3
-8 -6 -5 -6 6 -1 11 2 17 5 13 3 -3 4 -12 1 -19z m-2957 5 c-1 -10 -50 -90
-50 -82 0 18 23 69 32 69 5 0 6 5 3 10 -3 6 -1 10 4 10 6 0 11 -3 11 -7z
m1588 -28 c-3 -3 -9 2 -12 12 -6 14 -5 15 5 6 7 -7 10 -15 7 -18z m-9943 -3
c-3 -3 -11 0 -18 7 -9 10 -8 11 6 5 10 -3 15 -9 12 -12z m13019 -4 c-9 -32
-24 -48 -42 -48 -12 0 -11 5 6 23 12 13 22 29 22 35 0 7 5 12 11 12 6 0 8 -9
3 -22z m58 -23 c10 -19 14 -35 10 -35 -4 0 -15 16 -24 35 -10 19 -14 35 -10
35 4 0 15 -16 24 -35z m-2848 9 c3 -8 2 -12 -4 -9 -6 3 -10 10 -10 16 0 14 7
11 14 -7z m-10154 -4 c-8 -5 -19 -10 -25 -10 -5 0 -3 5 5 10 8 5 20 10 25 10
6 0 3 -5 -5 -10z m259 -26 c-9 -11 -15 -11 -25 -3 -21 18 -17 27 11 21 20 -3
23 -7 14 -18z m-79 -11 c0 -13 -3 -13 -15 -3 -8 7 -12 16 -9 21 8 13 24 1 24
-18z m-125 7 c-3 -5 -11 -10 -16 -10 -6 0 -7 5 -4 10 3 6 11 10 16 10 6 0 7
-4 4 -10z m8175 -20 c0 -5 -5 -10 -11 -10 -5 0 -7 5 -4 10 3 6 8 10 11 10 2 0
4 -4 4 -10z m4645 0 c-3 -5 -12 -10 -20 -10 -8 0 -17 5 -20 10 -4 6 5 10 20
10 15 0 24 -4 20 -10z m-2767 -80 c1 -23 0 -23 -8 -5 -5 11 -8 36 -8 55 l0 35
8 -30 c4 -16 8 -41 8 -55z m2922 37 c0 -18 -2 -19 -10 -7 -13 20 -13 43 0 35
6 -3 10 -16 10 -28z m-12842 -12 c-3 -3 -9 2 -12 12 -6 14 -5 15 5 6 7 -7 10
-15 7 -18z m8014 3 c-7 -7 -12 -8 -12 -2 0 14 12 26 19 19 2 -3 -1 -11 -7 -17z
m4660 -18 l8 -25 -19 24 c-12 16 -24 22 -35 18 -11 -4 -15 -3 -11 4 12 18 48
5 57 -21z m-1492 -46 c17 -49 7 -53 -13 -4 -8 22 -12 40 -7 40 5 0 14 -16 20
-36z m1637 20 c6 -16 -19 -44 -39 -44 -12 0 -21 28 -14 45 7 20 45 19 53 -1z
m-7612 -40 c24 -9 49 -64 36 -77 -8 -8 -11 -6 -11 5 0 9 -12 30 -26 47 -27 32
-27 35 1 25z m-255 -9 c0 -2 -10 -9 -22 -15 -22 -11 -22 -10 -4 4 21 17 26 19
26 11z m-3562 -16 c26 0 26 -1 5 -11 -16 -8 -27 -6 -45 7 -16 12 -18 16 -5 11
10 -3 31 -6 45 -7z m109 -5 c-3 -3 -12 -4 -19 -1 -8 3 -5 6 6 6 11 1 17 -2 13
-5z m6441 -21 c-20 -46 -48 -89 -48 -75 0 19 46 102 56 102 2 0 -2 -12 -8 -27z
m4822 17 c0 -5 -5 -10 -11 -10 -5 0 -7 5 -4 10 3 6 8 10 11 10 2 0 4 -4 4 -10z
m-7880 -4 c0 -2 -7 -7 -16 -10 -8 -3 -12 -2 -9 4 6 10 25 14 25 6z m6124 -36
c13 -13 -2 -13 -43 1 -17 6 -31 15 -31 19 0 11 60 -6 74 -20z m-6386 6 c-25
-6 -50 -14 -54 -18 -4 -5 -16 -8 -27 -8 -11 0 -18 3 -14 6 12 13 83 33 112 32
25 0 22 -2 -17 -12z m6592 -7 c0 -6 -4 -7 -10 -4 -5 3 -10 11 -10 16 0 6 5 7
10 4 6 -3 10 -11 10 -16z m-5774 -43 c11 -3 33 -25 47 -47 23 -34 27 -52 27
-107 -1 -37 -7 -85 -15 -107 -8 -22 -15 -48 -15 -57 0 -9 -4 -19 -9 -22 -12
-8 -1 75 13 93 6 7 10 44 10 81 0 68 -13 100 -40 100 -7 0 -14 10 -16 22 -4
30 -63 59 -103 52 -20 -4 -27 -3 -20 4 15 16 68 19 85 6 8 -6 24 -14 36 -18z
m5519 -36 c3 -5 1 -10 -4 -10 -6 0 -11 5 -11 10 0 6 2 10 4 10 3 0 8 -4 11
-10z m1049 -37 c-11 -14 -31 -30 -44 -35 l-25 -8 25 20 c14 11 28 20 31 20 4
0 9 10 12 22 4 12 9 19 13 15 4 -4 -1 -19 -12 -34z m-4174 -33 c-8 -5 -17 -7
-19 -4 -3 3 1 9 9 14 8 5 17 7 19 4 3 -3 -1 -9 -9 -14z m3330 4 c0 -8 -4 -12
-10 -9 -5 3 -10 10 -10 16 0 5 5 9 10 9 6 0 10 -7 10 -16z m-126 -20 c3 -8 2
-12 -4 -9 -6 3 -10 10 -10 16 0 14 7 11 14 -7z m210 -49 c11 -8 18 -17 15 -19
-6 -6 -88 47 -89 57 0 8 44 -14 74 -38z m-170 9 c9 -23 7 -36 -3 -30 -12 8
-21 46 -11 46 4 0 11 -7 14 -16z m800 -28 c-3 -14 -13 -26 -21 -26 -12 0 -11
5 3 30 21 34 28 33 18 -4z m-4144 10 c0 -3 -4 -8 -10 -11 -5 -3 -10 -1 -10 4
0 6 5 11 10 11 6 0 10 -2 10 -4z m5240 -20 c0 -11 -19 -15 -25 -6 -3 5 1 10 9
10 9 0 16 -2 16 -4z m-51 -57 c-14 -28 -19 -23 -16 16 2 30 4 33 14 19 9 -12
9 -22 2 -35z m-5244 31 c-3 -5 -11 -10 -16 -10 -6 0 -7 5 -4 10 3 6 11 10 16
10 6 0 7 -4 4 -10z m3439 -29 c-6 -6 -24 19 -24 34 1 6 7 1 15 -9 8 -11 12
-22 9 -25z m216 19 c8 -5 11 -10 5 -10 -5 0 -17 5 -25 10 -8 5 -10 10 -5 10 6
0 17 -5 25 -10z m1350 -1 c0 -16 -42 -21 -56 -7 -12 12 -9 14 21 14 19 0 35
-3 35 -7z m-10968 -24 c-2 -14 -8 -25 -13 -25 -12 0 -11 7 1 31 14 26 18 24
12 -6z m10894 -20 c18 -15 17 -16 -16 -9 -44 8 -63 24 -29 24 14 0 34 -7 45
-15z m134 7 c0 -10 -50 -35 -57 -28 -3 2 8 11 24 20 34 18 33 18 33 8z m-5148
-35 c-12 -13 -22 -28 -22 -34 0 -6 -7 -16 -15 -23 -8 -7 -15 -8 -15 -3 0 13
63 93 69 88 2 -3 -5 -15 -17 -28z m4883 -4 c-18 -26 -17 -27 13 -54 17 -16 27
-31 22 -34 -12 -8 -30 3 -30 17 0 6 -8 16 -17 23 -14 11 -15 16 -4 44 8 17 18
31 23 31 6 0 2 -12 -7 -27z m-10767 7 c10 0 8 -5 -4 -17 -13 -13 -19 -14 -22
-5 -2 6 -10 12 -18 12 -8 0 -14 5 -14 11 0 7 9 9 23 5 12 -3 28 -6 35 -6z
m9472 -15 c20 -24 6 -28 -15 -5 -10 11 -13 20 -8 20 6 0 16 -7 23 -15z m600
-49 c-1 -31 -1 -31 -15 9 -18 50 -18 50 0 35 8 -7 15 -27 15 -44z m-10140 34
c0 -5 -5 -10 -11 -10 -5 0 -7 5 -4 10 3 6 8 10 11 10 2 0 4 -4 4 -10z m9767
-37 c-11 -10 -37 12 -37 31 1 21 1 21 21 -3 11 -13 18 -26 16 -28z m-9766 -17
c-34 -35 -61 -38 -61 -6 0 10 6 23 14 29 11 10 15 9 18 -5 3 -15 6 -14 28 4
38 31 38 16 1 -22z m-1831 20 c0 -3 -4 -8 -10 -11 -5 -3 -10 -1 -10 4 0 6 5
11 10 11 6 0 10 -2 10 -4z m12770 -6 c0 -5 -7 -10 -16 -10 -8 0 -12 5 -9 10 3
6 10 10 16 10 5 0 9 -4 9 -10z m-10770 -20 c-8 -16 -8 -20 3 -20 8 0 20 7 27
15 7 8 17 15 22 15 5 0 -7 -14 -26 -31 -30 -26 -40 -29 -70 -23 -35 6 -51 24
-22 24 8 0 24 9 37 20 31 25 42 25 29 0z m5720 0 c0 -5 -5 -10 -11 -10 -5 0
-7 5 -4 10 3 6 8 10 11 10 2 0 4 -4 4 -10z m3703 -10 c3 -11 3 -20 1 -20 -2 0
-8 9 -14 20 -6 11 -7 20 -2 20 6 0 12 -9 15 -20z m1363 -19 c-21 -22 -26 -34
-20 -55 7 -31 -1 -34 -16 -7 -14 28 16 91 44 91 18 0 17 -2 -8 -29z m644 -16
c32 -17 39 -39 15 -49 -9 -3 -15 0 -15 7 0 7 -9 23 -20 35 -24 26 -20 27 20 7z
m255 -25 c-3 -5 -11 -10 -16 -10 -6 0 -7 5 -4 10 3 6 11 10 16 10 6 0 7 -4 4
-10z m-13635 -14 c0 -8 -4 -18 -10 -21 -5 -3 -10 3 -10 14 0 12 5 21 10 21 6
0 10 -6 10 -14z m2220 4 c0 -5 10 -10 22 -10 20 0 20 -1 4 -19 -10 -11 -24
-17 -32 -14 -16 6 -19 53 -4 53 6 0 10 -4 10 -10z m5347 -22 c-3 -8 -6 -5 -6
6 -1 11 2 17 5 13 3 -3 4 -12 1 -19z m4084 9 c-1 -12 -15 -9 -19 4 -3 6 1 10
8 8 6 -3 11 -8 11 -12z m-9264 -3 c-3 -3 -12 -4 -19 -1 -8 3 -5 6 6 6 11 1 17
-2 13 -5z m9037 -43 c-6 -6 -11 1 -18 29 l-7 25 15 -25 c8 -14 12 -27 10 -29z
m1218 22 c10 -9 18 -25 18 -37 0 -20 0 -20 -16 2 -8 12 -22 22 -30 22 -15 0
-19 12 -7 23 9 10 15 9 35 -10z m501 10 c-7 -2 -21 -2 -30 0 -10 3 -4 5 12 5
17 0 24 -2 18 -5z m1423 -8 c10 -8 14 -15 8 -15 -5 0 -19 7 -30 15 -10 8 -14
15 -8 15 5 0 19 -7 30 -15z m-2552 -4 c4 -5 -3 -7 -14 -4 -23 6 -26 13 -6 13
8 0 17 -4 20 -9z m1180 -7 c8 -22 7 -34 -3 -34 -5 0 -11 11 -13 25 -6 28 6 34
16 9z m-1099 -4 c3 -5 -3 -10 -15 -10 -12 0 -18 5 -15 10 3 6 10 10 15 10 5 0
12 -4 15 -10z m1453 -7 c6 -19 -35 -16 -42 3 -4 11 0 15 16 12 12 -2 23 -9 26
-15z m-1338 -2 c0 -4 -11 -6 -25 -3 -14 2 -25 6 -25 8 0 2 11 4 25 4 14 0 25
-4 25 -9z m-511 -61 l-1 -35 -8 30 c-4 17 -8 39 -9 50 -1 16 1 17 9 5 5 -8 9
-31 9 -50z m-9114 40 c3 -5 1 -10 -4 -10 -6 0 -11 5 -11 10 0 6 2 10 4 10 3 0
8 -4 11 -10z m4923 -37 c-30 -72 -41 -122 -35 -158 4 -24 2 -33 -5 -29 -16 10
-2 126 23 184 12 28 24 48 27 45 3 -2 -2 -22 -10 -42z m5082 37 c0 -5 -4 -10
-10 -10 -5 0 -10 5 -10 10 0 6 5 10 10 10 6 0 10 -4 10 -10z m160 -20 c0 -11
-2 -20 -4 -20 -2 0 -6 9 -9 20 -3 11 -1 20 4 20 5 0 9 -9 9 -20z m-210 -31 c0
-10 -4 -21 -10 -24 -5 -3 -10 3 -10 14 0 10 -3 28 -7 38 -6 16 -5 16 10 4 9
-7 17 -22 17 -32z m940 31 c8 -5 11 -10 5 -10 -5 0 -17 5 -25 10 -8 5 -10 10
-5 10 6 0 17 -5 25 -10z m1129 -31 c5 -16 6 -31 1 -34 -10 -6 -19 6 -30 45
-11 39 15 30 29 -11z m-3128 14 c13 -16 12 -17 -3 -4 -10 7 -18 15 -18 17 0 8
8 3 21 -13z m-5703 -34 c-3 -8 -7 -3 -11 10 -4 17 -3 21 5 13 5 -5 8 -16 6
-23z m6822 5 c0 -8 -4 -12 -10 -9 -5 3 -10 10 -10 16 0 5 5 9 10 9 6 0 10 -7
10 -16z m-1075 -14 c3 -5 2 -10 -4 -10 -5 0 -13 5 -16 10 -3 6 -2 10 4 10 5 0
13 -4 16 -10z m2666 -7 c13 -16 12 -17 -3 -4 -10 7 -18 15 -18 17 0 8 8 3 21
-13z m-11434 -9 c-3 -3 -12 -4 -19 -1 -8 3 -5 6 6 6 11 1 17 -2 13 -5z m3043
-25 c0 -6 -4 -7 -10 -4 -5 3 -10 11 -10 16 0 6 5 7 10 4 6 -3 10 -11 10 -16z
m8759 -32 c-2 -1 -13 -9 -24 -17 -19 -14 -19 -14 -6 3 7 9 18 17 24 17 6 0 8
-1 6 -3z m-11722 -39 c-3 -8 -6 -5 -6 6 -1 11 2 17 5 13 3 -3 4 -12 1 -19z
m2993 -35 c0 -22 -8 -14 -19 20 -10 29 -9 30 4 13 8 -11 15 -26 15 -33z m7924
-10 c-6 -9 -16 -18 -22 -19 -7 -1 -8 0 -2 3 5 2 10 16 10 31 0 21 3 23 12 14
9 -9 10 -17 2 -29z m-1824 7 c0 -5 -7 -10 -15 -10 -8 0 -15 5 -15 10 0 6 7 10
15 10 8 0 15 -4 15 -10z m2358 -32 c1 -26 -1 -29 -9 -16 -5 9 -6 23 -3 32 9
23 11 20 12 -16z m-8423 -38 l6 -35 -15 40 c-18 47 -19 52 -6 39 5 -5 12 -25
15 -44z m1635 -20 c0 -9 16 -48 35 -89 19 -40 35 -75 35 -77 0 -16 -20 13 -49
73 -18 37 -37 76 -42 85 -5 10 -9 30 -9 45 l1 28 14 -25 c8 -14 14 -32 15 -40z
m4399 46 c-11 -9 -69 -15 -64 -6 3 6 20 10 37 10 17 0 29 -2 27 -4z m321 -11
c16 -9 19 -14 9 -15 -8 0 -24 7 -35 15 -24 18 -7 19 26 0z m1915 5 c7 -12 -2
-12 -30 0 -19 8 -19 9 2 9 12 1 25 -3 28 -9z m-55 -4 c0 -2 -7 -7 -16 -10 -8
-3 -12 -2 -9 4 6 10 25 14 25 6z m-264 -27 c18 -20 18 -20 -11 -13 -37 8 -39
10 -30 23 9 16 20 13 41 -10z m-1686 -15 l25 -15 -25 7 c-14 3 -29 10 -34 15
-16 14 6 10 34 -7z m-9303 -16 c-3 -8 -6 -5 -6 6 -1 11 2 17 5 13 3 -3 4 -12
1 -19z m9366 5 c-7 -2 -19 -2 -25 0 -7 3 -2 5 12 5 14 0 19 -2 13 -5z m2190
-58 c12 -8 16 -15 9 -15 -16 0 -52 37 -52 53 0 7 5 5 11 -5 5 -10 19 -24 32
-33z m-1943 25 c0 -5 -8 -10 -17 -10 -15 0 -16 2 -3 10 19 12 20 12 20 0z
m515 0 c-3 -5 -14 -10 -23 -10 -15 0 -15 2 -2 10 20 13 33 13 25 0z m985 -10
c0 -5 -7 -7 -15 -4 -8 4 -15 8 -15 10 0 2 7 4 15 4 8 0 15 -4 15 -10z m-8065
-52 c4 -18 13 -45 21 -59 12 -23 11 -31 -2 -59 -19 -37 -29 -35 -15 3 10 25 1
69 -24 130 -4 10 -3 17 3 17 6 0 14 -15 17 -32z m8540 -61 c7 -7 4 -8 -8 -3
-10 3 -25 6 -33 6 -8 0 -14 5 -14 11 0 12 40 2 55 -14z m-6847 -89 c1 -42 -2
-58 -8 -48 -12 19 -13 110 -1 110 4 0 9 -28 9 -62z m497 -113 c-14 -25 -31
-45 -38 -45 -6 0 -35 -23 -64 -52 -29 -28 -55 -50 -57 -47 -7 7 61 78 107 112
22 17 45 46 55 70 11 28 18 36 20 24 2 -10 -8 -38 -23 -62z m-2225 41 c0 -3
-4 -8 -10 -11 -5 -3 -10 -1 -10 4 0 6 5 11 10 11 6 0 10 -2 10 -4z m2319 -103
c1 -28 -2 -54 -6 -56 -5 -3 -9 32 -9 76 -1 52 1 73 6 57 5 -14 8 -48 9 -77z
m5865 71 c3 -8 2 -12 -4 -9 -6 3 -10 10 -10 16 0 14 7 11 14 -7z m-6435 -27
c0 -21 -1 -21 -9 -2 -12 28 -12 37 0 30 6 -3 10 -16 9 -28z m-4992 -19 c-3 -7
-5 -2 -5 12 0 14 2 19 5 13 2 -7 2 -19 0 -25z m3210 0 c-3 -8 -6 -5 -6 6 -1
11 2 17 5 13 3 -3 4 -12 1 -19z m7680 -20 c-3 -7 -5 -2 -5 12 0 14 2 19 5 13
2 -7 2 -19 0 -25z m-5917 -8 c-6 -11 -12 -20 -14 -20 -2 0 -2 9 1 20 3 11 9
20 15 20 5 0 4 -9 -2 -20z m6297 -52 c-2 -13 -4 -3 -4 22 0 25 2 35 4 23 2
-13 2 -33 0 -45z m-8074 22 c-3 -11 -10 -23 -16 -27 -5 -3 -8 -2 -5 3 3 5 8
17 11 27 9 24 16 22 10 -3z m7307 6 c0 -11 -19 -15 -25 -6 -3 5 1 10 9 10 9 0
16 -2 16 -4z m428 -34 c2 -7 -3 -12 -12 -12 -9 0 -16 7 -16 16 0 17 22 14 28
-4z m-5388 -37 c-7 -9 -15 -13 -17 -11 -7 7 7 26 19 26 6 0 6 -6 -2 -15z
m-5543 -57 c-3 -7 -5 -2 -5 12 0 14 2 19 5 13 2 -7 2 -19 0 -25z m11023 22 c0
-5 -2 -10 -4 -10 -3 0 -8 5 -11 10 -3 6 -1 10 4 10 6 0 11 -4 11 -10z m-5519
-72 c-16 -35 -19 -38 -14 -13 3 17 10 34 14 40 5 5 10 18 10 30 1 16 2 16 6 3
2 -9 -5 -36 -16 -60z m-661 58 c0 -3 -4 -8 -10 -11 -5 -3 -10 -1 -10 4 0 6 5
11 10 11 6 0 10 -2 10 -4z m5286 -32 c-5 -14 -9 -15 -19 -5 -9 9 -9 14 3 21
18 11 24 6 16 -16z m-4946 -36 c0 -29 -4 -48 -8 -41 -7 12 -4 93 4 93 2 0 4
-24 4 -52z m-457 -14 c-15 -20 -29 -31 -31 -25 -6 17 26 61 44 61 11 0 8 -9
-13 -36z m747 -59 c0 -8 -4 -15 -10 -15 -5 0 -7 7 -4 15 4 8 8 15 10 15 2 0 4
-7 4 -15z m-5503 -17 c-3 -8 -6 -5 -6 6 -1 11 2 17 5 13 3 -3 4 -12 1 -19z
m4703 19 c0 -2 -9 -14 -20 -27 -11 -13 -20 -19 -20 -15 0 5 7 17 17 27 15 17
23 22 23 15z m530 -38 c0 -6 -4 -7 -10 -4 -5 3 -10 11 -10 16 0 6 5 7 10 4 6
-3 10 -11 10 -16z m241 -42 c-13 -13 -15 1 -4 30 7 17 8 17 11 -1 2 -10 -1
-23 -7 -29z m-248 3 c-3 -11 -10 -23 -16 -27 -7 -4 -8 0 -4 11 4 10 7 22 7 27
0 5 4 9 9 9 5 0 7 -9 4 -20z m-595 -23 c-9 -28 -6 -42 16 -89 14 -30 26 -63
25 -74 -1 -18 -1 -18 -8 1 -10 31 -33 77 -52 105 -14 22 -14 29 -2 58 17 42
34 42 21 -1z m523 -100 c-10 -9 -11 -8 -5 6 3 10 9 15 12 12 3 -3 0 -11 -7
-18z m288 16 c0 -5 -4 -17 -9 -28 -8 -18 -9 -17 -9 8 -1 15 4 27 9 27 6 0 10
-3 9 -7z m-5650 -87 c-12 -10 -60 -16 -54 -6 3 5 18 10 32 10 15 0 24 -2 22
-4z m9667 -37 c-9 -22 -15 -27 -15 -16 -1 21 18 61 25 54 3 -3 -2 -20 -10 -38z
m-4786 14 c0 -5 -5 -15 -10 -23 -8 -12 -10 -11 -10 8 0 12 5 22 10 22 6 0 10
-3 10 -7z m480 -45 c0 -38 -10 -31 -16 12 -4 21 -2 30 5 25 6 -3 11 -20 11
-37z m4287 -30 c-3 -8 -6 -5 -6 6 -1 11 2 17 5 13 3 -3 4 -12 1 -19z m-4061
-26 c-4 -10 -18 -24 -32 -30 -31 -15 -34 -15 -34 -2 0 6 9 10 20 10 12 0 25
10 32 25 13 28 23 26 14 -3z m4084 -52 c0 -5 -5 -10 -11 -10 -5 0 -7 5 -4 10
3 6 8 10 11 10 2 0 4 -4 4 -10z m-23 -72 c-3 -7 -5 -2 -5 12 0 14 2 19 5 13 2
-7 2 -19 0 -25z m2386 7 c-3 -9 -8 -14 -10 -11 -3 3 -2 9 2 15 9 16 15 13 8
-4z m-2386 -77 c-3 -7 -5 -2 -5 12 0 14 2 19 5 13 2 -7 2 -19 0 -25z m-5008
-67 c-13 -11 -26 -17 -28 -15 -5 5 30 33 43 34 4 0 -2 -9 -15 -19z m-6254
-131 c3 -5 1 -10 -4 -10 -6 0 -11 5 -11 10 0 6 2 10 4 10 3 0 8 -4 11 -10z
m11285 -68 c-1 -9 -8 -28 -16 -42 l-15 -25 5 25 c3 14 6 35 6 48 0 13 4 20 10
17 6 -3 10 -14 10 -23z m-5858 -54 c-10 -22 -11 -21 -11 12 -1 26 2 31 11 22
8 -8 8 -17 0 -34z m6573 12 c-3 -5 -12 -10 -18 -10 -7 0 -6 4 3 10 19 12 23
12 15 0z m88 3 c-7 -2 -21 -2 -30 0 -10 3 -4 5 12 5 17 0 24 -2 18 -5z m255
-78 c-3 -3 -9 2 -12 12 -6 14 -5 15 5 6 7 -7 10 -15 7 -18z m219 -11 c3 -8 0
-21 -7 -27 -10 -9 -14 -9 -17 1 -3 6 -11 12 -19 12 -8 0 -14 4 -14 8 0 25 47
30 57 6z m-1337 -14 c0 -5 -5 -10 -11 -10 -5 0 -7 5 -4 10 3 6 8 10 11 10 2 0
4 -4 4 -10z m418 -17 c-10 -2 -28 -2 -40 0 -13 2 -5 4 17 4 22 1 32 -1 23 -4z
m879 -28 c-24 -17 -21 -25 8 -25 20 0 25 -5 25 -23 0 -20 -5 -24 -30 -24 -26
0 -29 3 -24 20 4 11 1 23 -7 28 -11 6 -9 12 5 28 10 11 23 18 29 14 6 -4 4
-11 -6 -18z m-11627 -2 c0 -5 -7 -16 -15 -27 -17 -23 -45 -14 -45 14 0 16 7
20 30 20 17 0 30 -3 30 -7z m10480 -28 c0 -8 -52 -26 -58 -20 -3 2 6 9 19 14
28 11 39 13 39 6z m1868 -74 c-33 -30 -48 -38 -48 -23 1 8 73 61 78 56 2 -1
-11 -16 -30 -33z m-13211 -13 c-3 -8 -6 -5 -6 6 -1 11 2 17 5 13 3 -3 4 -12 1
-19z m-17 -55 c-11 -17 -11 -17 -6 0 3 10 6 24 7 30 0 9 2 9 5 0 3 -7 0 -20
-6 -30z m14620 17 c0 -5 -5 -10 -11 -10 -5 0 -7 5 -4 10 3 6 8 10 11 10 2 0 4
-4 4 -10z m-1819 -142 c9 -19 9 -21 -2 -10 -7 6 -21 12 -31 12 -10 0 -18 5
-18 10 0 19 39 10 51 -12z m-12751 -27 c0 -11 -4 -23 -10 -26 -6 -4 -10 5 -10
19 0 14 5 26 10 26 6 0 10 -9 10 -19z m529 -128 c-8 -9 -13 -26 -11 -37 2 -19
1 -18 -12 4 -16 27 -6 50 21 50 13 0 13 -2 2 -17z m12214 -40 c-7 -2 -19 -2
-25 0 -7 3 -2 5 12 5 14 0 19 -2 13 -5z m-12627 -89 c-8 -21 -11 -17 -20 21
-7 28 -6 29 10 13 10 -10 14 -23 10 -34z m439 36 c3 -5 2 -10 -4 -10 -5 0 -13
5 -16 10 -3 6 -2 10 4 10 5 0 13 -4 16 -10z m13495 -55 c-7 -8 -17 -15 -22
-15 -6 0 -5 7 2 15 7 8 17 15 22 15 6 0 5 -7 -2 -15z m-13476 -30 c-4 -8 -8
-15 -10 -15 -2 0 -4 7 -4 15 0 8 4 15 10 15 5 0 7 -7 4 -15z m13422 0 c-11 -8
-29 -15 -40 -15 -19 1 -19 2 4 15 35 20 62 19 36 0z m59 -55 c-3 -5 -10 -10
-16 -10 -5 0 -9 5 -9 10 0 6 7 10 16 10 8 0 12 -4 9 -10z m-13898 -52 c-3 -8
-6 -5 -6 6 -1 11 2 17 5 13 3 -3 4 -12 1 -19z m-7 -43 c0 -16 -27 -32 -36 -22
-7 6 17 36 29 37 4 0 7 -7 7 -15z m360 -1 c0 -8 -4 -12 -10 -9 -5 3 -10 10
-10 16 0 5 5 9 10 9 6 0 10 -7 10 -16z m-348 -91 c22 -26 50 -83 46 -95 -2 -5
-16 13 -31 41 -16 28 -32 51 -38 51 -5 0 -9 5 -9 10 0 15 15 12 32 -7z m912
-261 c2 -4 -3 -23 -12 -42 -20 -45 -19 -43 -37 -36 -15 5 -15 7 0 22 9 10 14
25 12 35 -6 22 25 40 37 21z m-714 -58 c0 -8 -4 -12 -10 -9 -5 3 -10 13 -10
21 0 8 5 12 10 9 6 -3 10 -13 10 -21z m407 -140 c-7 -7 -37 7 -37 17 0 6 9 5
21 -1 11 -7 19 -14 16 -16z m-82 -74 c8 -13 -5 -13 -25 0 -13 8 -13 10 2 10 9
0 20 -4 23 -10z"/>
<path d="M12781 9324 c-20 -14 -21 -18 -8 -26 9 -5 26 -4 41 4 30 13 33 23 10
32 -20 8 -16 9 -43 -10z"/>
<path d="M3594 8815 c3 -9 6 -19 6 -21 0 -2 9 -4 21 -4 29 0 21 34 -10 38 -19
3 -22 0 -17 -13z"/>
<path d="M4470 9094 c0 -17 17 -36 24 -26 3 5 -1 15 -9 22 -8 7 -15 9 -15 4z"/>
<path d="M4450 9070 c0 -5 5 -10 10 -10 6 0 10 5 10 10 0 6 -4 10 -10 10 -5 0
-10 -4 -10 -10z"/>
<path d="M9947 8353 c-8 -7 38 -33 59 -33 8 0 14 9 14 20 0 16 -7 20 -33 20
-19 0 -37 -3 -40 -7z"/>
<path d="M1670 8221 c0 -5 4 -12 9 -15 10 -7 3 -44 -11 -62 -6 -8 1 -14 19
-19 33 -8 38 -5 37 15 -2 35 -18 71 -35 81 -12 6 -19 6 -19 0z"/>
<path d="M1646 8084 c-10 -26 -7 -44 9 -44 17 0 39 36 30 50 -9 15 -32 12 -39
-6z"/>
<path d="M768 8203 c7 -3 16 -2 19 1 4 3 -2 6 -13 5 -11 0 -14 -3 -6 -6z"/>
<path d="M9200 8090 c-12 -11 -27 -20 -32 -20 -21 0 -4 -16 27 -26 44 -14 69
1 63 36 -4 32 -28 36 -58 10z"/>
<path d="M9201 8001 c-8 -5 -9 -11 -3 -15 5 -3 15 1 22 9 14 16 3 20 -19 6z"/>
<path d="M5485 7790 c-3 -5 -2 -10 4 -10 5 0 13 5 16 10 3 6 2 10 -4 10 -5 0
-13 -4 -16 -10z"/>
<path d="M1763 7599 c-14 -14 -6 -39 13 -39 8 0 14 10 14 25 0 27 -9 32 -27
14z"/>
<path d="M10160 7070 c0 -5 5 -10 11 -10 5 0 7 5 4 10 -3 6 -8 10 -11 10 -2 0
-4 -4 -4 -10z"/>
</g>
</svg>
